<?xml version="1.0" standalone="no"?>
 <!DOCTYPE svg PUBLIC "-//W3C//DTD SVG 1.1//EN" 
 "http://www.w3.org/Graphics/SVG/1.1/DTD/svg11.dtd"> 
<svg xmlns="http://www.w3.org/2000/svg" version="1.1" 
    width="29.7002cm" height="21.0007cm" viewBox="0 0 116930 82680 ">
<title>SVG Picture created as rotary-encoders-F.Cu.svg date 2017/03/31 00:43:43 </title>
  <desc>Picture generated by PCBNEW </desc>
<g style="fill:#000000; fill-opacity:1;stroke:#000000; stroke-opacity:1;
stroke-linecap:round; stroke-linejoin:round; "
 transform="translate(0 0) scale(1 1)">
</g>
<g style="fill:#000000; fill-opacity:0.0; 
stroke:#000000; stroke-width:-0.000393701; stroke-opacity:1; 
stroke-linecap:round; stroke-linejoin:round;">
</g>
<g style="fill:#000000; fill-opacity:1.0; 
stroke:#000000; stroke-width:39.3701; stroke-opacity:1; 
stroke-linecap:round; stroke-linejoin:round;">
<rect x="47062.8" y="28714" width="57662.4" height="38114.8" rx="0" />
</g>
<g style="fill:#FFFFFF; fill-opacity:1.0; 
stroke:#FFFFFF; stroke-width:39.3701; stroke-opacity:1; 
stroke-linecap:round; stroke-linejoin:round;">
</g>
<g style="fill:#FFFFFF; fill-opacity:0.0; 
stroke:#FFFFFF; stroke-width:39.3701; stroke-opacity:1; 
stroke-linecap:round; stroke-linejoin:round;">
<circle cx="96851.3" cy="52362.2" r="656.168" /> 
<path d="M97835 52362
L95867 52362
" />
<path d="M96851 51377
L96851 53346
" />
</g>
<g style="fill:#FFFFFF; fill-opacity:0.0; 
stroke:#FFFFFF; stroke-width:118.11; stroke-opacity:1; 
stroke-linecap:round; stroke-linejoin:round;">
<path d="M94195 32475
L94195 31885
L93998 32307
L93801 31885
L93801 32475
" />
<path d="M93520 32475
L93520 31885
" />
<path d="M93239 32475
L93239 31885
L93098 31885
L93014 31913
L92957 31969
L92929 32025
L92901 32138
L92901 32222
L92929 32335
L92957 32391
L93014 32447
L93098 32475
L93239 32475
" />
<path d="M92648 32475
L92648 31885
" />
<path d="M91664 32447
L91720 32475
L91832 32475
L91889 32447
L91917 32419
L91945 32363
L91945 32194
L91917 32138
L91889 32110
L91832 32082
L91720 32082
L91664 32110
" />
<path d="M91495 32082
L91270 32082
" />
<path d="M91411 31885
L91411 32391
L91383 32447
L91326 32475
L91270 32475
" />
<path d="M91101 31941
L91073 31913
L91017 31885
L90876 31885
L90820 31913
L90792 31941
L90764 31997
L90764 32053
L90792 32138
L91129 32475
L90764 32475
" />
<path d="M89723 32475
L89920 32194
" />
<path d="M90061 32475
L90061 31885
L89836 31885
L89780 31913
L89751 31941
L89723 31997
L89723 32082
L89751 32138
L89780 32166
L89836 32194
L90061 32194
" />
<path d="M89386 32475
L89442 32447
L89470 32419
L89498 32363
L89498 32194
L89470 32138
L89442 32110
L89386 32082
L89302 32082
L89245 32110
L89217 32138
L89189 32194
L89189 32363
L89217 32419
L89245 32447
L89302 32475
L89386 32475
" />
<path d="M89020 32082
L88795 32082
" />
<path d="M88936 31885
L88936 32391
L88908 32447
L88852 32475
L88795 32475
" />
<path d="M88345 32475
L88345 32166
L88374 32110
L88430 32082
L88542 32082
L88599 32110
" />
<path d="M88345 32447
L88402 32475
L88542 32475
L88599 32447
L88627 32391
L88627 32335
L88599 32278
L88542 32250
L88402 32250
L88345 32222
" />
<path d="M88064 32475
L88064 32082
" />
<path d="M88064 32194
L88036 32138
L88008 32110
L87952 32082
L87895 32082
" />
<path d="M87755 32082
L87614 32475
" />
<path d="M87474 32082
L87614 32475
L87671 32616
L87699 32644
L87755 32672
" />
<path d="M86799 32166
L86602 32166
" />
<path d="M86518 32475
L86799 32475
L86799 31885
L86518 31885
" />
<path d="M86264 32082
L86264 32475
" />
<path d="M86264 32138
L86236 32110
L86180 32082
L86096 32082
L86039 32110
L86011 32166
L86011 32475
" />
<path d="M85477 32447
L85533 32475
L85646 32475
L85702 32447
L85730 32419
L85758 32363
L85758 32194
L85730 32138
L85702 32110
L85646 32082
L85533 32082
L85477 32110
" />
<path d="M85140 32475
L85196 32447
L85224 32419
L85252 32363
L85252 32194
L85224 32138
L85196 32110
L85140 32082
L85055 32082
L84999 32110
L84971 32138
L84943 32194
L84943 32363
L84971 32419
L84999 32447
L85055 32475
L85140 32475
" />
<path d="M84437 32475
L84437 31885
" />
<path d="M84437 32447
L84493 32475
L84605 32475
L84662 32447
L84690 32419
L84718 32363
L84718 32194
L84690 32138
L84662 32110
L84605 32082
L84493 32082
L84437 32110
" />
<path d="M83930 32447
L83987 32475
L84099 32475
L84155 32447
L84183 32391
L84183 32166
L84155 32110
L84099 32082
L83987 32082
L83930 32110
L83902 32166
L83902 32222
L84183 32278
" />
<path d="M83649 32475
L83649 32082
" />
<path d="M83649 32194
L83621 32138
L83593 32110
L83537 32082
L83480 32082
" />
<path d="M83312 32447
L83255 32475
L83143 32475
L83087 32447
L83059 32391
L83059 32363
L83087 32307
L83143 32278
L83227 32278
L83284 32250
L83312 32194
L83312 32166
L83284 32110
L83227 32082
L83143 32082
L83087 32110
" />
<path d="M82412 32082
L82271 32475
L82131 32082
" />
<path d="M81596 32475
L81934 32475
" />
<path d="M81765 32475
L81765 31885
L81821 31969
L81877 32025
L81934 32053
" />
<path d="M81343 32419
L81315 32447
L81343 32475
L81371 32447
L81343 32419
L81343 32475
" />
<path d="M80949 31885
L80893 31885
L80837 31913
L80809 31941
L80781 31997
L80753 32110
L80753 32250
L80781 32363
L80809 32419
L80837 32447
L80893 32475
L80949 32475
L81006 32447
L81034 32419
L81062 32363
L81090 32250
L81090 32110
L81062 31997
L81034 31941
L81006 31913
L80949 31885
" />
<path d="M80078 31941
L80050 31913
L79993 31885
L79853 31885
L79796 31913
L79768 31941
L79740 31997
L79740 32053
L79768 32138
L80106 32475
L79740 32475
" />
<path d="M79375 31885
L79318 31885
L79262 31913
L79234 31941
L79206 31997
L79178 32110
L79178 32250
L79206 32363
L79234 32419
L79262 32447
L79318 32475
L79375 32475
L79431 32447
L79459 32419
L79487 32363
L79515 32250
L79515 32110
L79487 31997
L79459 31941
L79431 31913
L79375 31885
" />
<path d="M78615 32475
L78953 32475
" />
<path d="M78784 32475
L78784 31885
L78840 31969
L78897 32025
L78953 32053
" />
<path d="M78419 31885
L78025 31885
L78278 32475
" />
<path d="M77800 32250
L77350 32250
" />
<path d="M76956 31885
L76900 31885
L76844 31913
L76816 31941
L76787 31997
L76759 32110
L76759 32250
L76787 32363
L76816 32419
L76844 32447
L76900 32475
L76956 32475
L77012 32447
L77041 32419
L77069 32363
L77097 32250
L77097 32110
L77069 31997
L77041 31941
L77012 31913
L76956 31885
" />
<path d="M76563 31885
L76197 31885
L76394 32110
L76309 32110
L76253 32138
L76225 32166
L76197 32222
L76197 32363
L76225 32419
L76253 32447
L76309 32475
L76478 32475
L76534 32447
L76563 32419
" />
<path d="M75944 32250
L75494 32250
" />
<path d="M75241 31941
L75213 31913
L75156 31885
L75016 31885
L74960 31913
L74931 31941
L74903 31997
L74903 32053
L74931 32138
L75269 32475
L74903 32475
" />
<path d="M74706 31885
L74313 31885
L74566 32475
" />
</g>
<g style="fill:#FFFFFF; fill-opacity:0.0; 
stroke:#FFFFFF; stroke-width:39.3701; stroke-opacity:1; 
stroke-linecap:round; stroke-linejoin:round;">
<path d="M50788 62204
L98032 62204
" />
<path d="M50788 30708
L50788 62204
" />
<path d="M98032 30708
L50788 30708
" />
<path d="M98032 62204
L98032 30708
" />
</g>
<g style="fill:#FFFFFF; fill-opacity:1.0; 
stroke:#FFFFFF; stroke-width:0; stroke-opacity:1; 
stroke-linecap:round; stroke-linejoin:round;">
<circle cx="96032.4" cy="46208.7" r="315" /> 
</g>
<g style="fill:#FFFFFF; fill-opacity:1.0; 
stroke:#FFFFFF; stroke-width:39.3701; stroke-opacity:1; 
stroke-linecap:round; stroke-linejoin:round;">
</g>
<g style="fill:#FFFFFF; fill-opacity:1.0; 
stroke:#FFFFFF; stroke-width:0; stroke-opacity:1; 
stroke-linecap:round; stroke-linejoin:round;">
<circle cx="96032.4" cy="45208.7" r="315" /> 
</g>
<g style="fill:#FFFFFF; fill-opacity:1.0; 
stroke:#FFFFFF; stroke-width:39.3701; stroke-opacity:1; 
stroke-linecap:round; stroke-linejoin:round;">
</g>
<g style="fill:#FFFFFF; fill-opacity:1.0; 
stroke:#FFFFFF; stroke-width:0; stroke-opacity:1; 
stroke-linecap:round; stroke-linejoin:round;">
<circle cx="52782.4" cy="45208.7" r="315" /> 
</g>
<g style="fill:#FFFFFF; fill-opacity:1.0; 
stroke:#FFFFFF; stroke-width:39.3701; stroke-opacity:1; 
stroke-linecap:round; stroke-linejoin:round;">
</g>
<g style="fill:#FFFFFF; fill-opacity:1.0; 
stroke:#FFFFFF; stroke-width:0; stroke-opacity:1; 
stroke-linecap:round; stroke-linejoin:round;">
<polyline style="fill-rule:evenodd;"
points="53614,37341
53614,36075
52348,36075
52348,37341
53614,37341
" /> 
<polyline style="fill-rule:evenodd;"
points="59686,37341
59686,36075
58420,36075
58420,37341
59686,37341
" /> 
<polyline style="fill-rule:evenodd;"
points="55344,34250
55344,33657
54751,33657
54751,34250
55344,34250
" /> 
<polyline style="fill-rule:evenodd;"
points="57312,34250
57312,33657
56719,33657
56719,34250
57312,34250
" /> 
<polyline style="fill-rule:evenodd;"
points="56328,40942
56328,40349
55735,40349
55735,40942
56328,40942
" /> 
<polyline style="fill-rule:evenodd;"
points="54344,40942
54344,40349
53751,40349
53751,40942
54344,40942
" /> 
<polyline style="fill-rule:evenodd;"
points="58312,40942
58312,40349
57719,40349
57719,40942
58312,40942
" /> 
<polyline style="fill-rule:evenodd;"
points="77614,37341
77614,36075
76348,36075
76348,37341
77614,37341
" /> 
<polyline style="fill-rule:evenodd;"
points="83686,37341
83686,36075
82420,36075
82420,37341
83686,37341
" /> 
<polyline style="fill-rule:evenodd;"
points="79344,34250
79344,33657
78751,33657
78751,34250
79344,34250
" /> 
<polyline style="fill-rule:evenodd;"
points="81312,34250
81312,33657
80719,33657
80719,34250
81312,34250
" /> 
<polyline style="fill-rule:evenodd;"
points="80328,40942
80328,40349
79735,40349
79735,40942
80328,40942
" /> 
<polyline style="fill-rule:evenodd;"
points="78344,40942
78344,40349
77751,40349
77751,40942
78344,40942
" /> 
<polyline style="fill-rule:evenodd;"
points="82312,40942
82312,40349
81719,40349
81719,40942
82312,40942
" /> 
<polyline style="fill-rule:evenodd;"
points="82450,56075
82450,57341
83716,57341
83716,56075
82450,56075
" /> 
<polyline style="fill-rule:evenodd;"
points="76378,56075
76378,57341
77644,57341
77644,56075
76378,56075
" /> 
<polyline style="fill-rule:evenodd;"
points="80719,59167
80719,59760
81312,59760
81312,59167
80719,59167
" /> 
<polyline style="fill-rule:evenodd;"
points="78751,59167
78751,59760
79344,59760
79344,59167
78751,59167
" /> 
<polyline style="fill-rule:evenodd;"
points="79735,52475
79735,53068
80328,53068
80328,52475
79735,52475
" /> 
<polyline style="fill-rule:evenodd;"
points="81719,52475
81719,53068
82312,53068
82312,52475
81719,52475
" /> 
<polyline style="fill-rule:evenodd;"
points="77751,52475
77751,53068
78344,53068
78344,52475
77751,52475
" /> 
<circle cx="52782.4" cy="46208.7" r="315" /> 
</g>
<g style="fill:#FFFFFF; fill-opacity:1.0; 
stroke:#FFFFFF; stroke-width:39.3701; stroke-opacity:1; 
stroke-linecap:round; stroke-linejoin:round;">
</g>
<g style="fill:#FFFFFF; fill-opacity:1.0; 
stroke:#FFFFFF; stroke-width:0; stroke-opacity:1; 
stroke-linecap:round; stroke-linejoin:round;">
<circle cx="59532.4" cy="43708.7" r="315" /> 
</g>
<g style="fill:#FFFFFF; fill-opacity:1.0; 
stroke:#FFFFFF; stroke-width:39.3701; stroke-opacity:1; 
stroke-linecap:round; stroke-linejoin:round;">
</g>
<g style="fill:#FFFFFF; fill-opacity:1.0; 
stroke:#FFFFFF; stroke-width:0; stroke-opacity:1; 
stroke-linecap:round; stroke-linejoin:round;">
<circle cx="86032.4" cy="50708.7" r="315" /> 
</g>
<g style="fill:#FFFFFF; fill-opacity:1.0; 
stroke:#FFFFFF; stroke-width:39.3701; stroke-opacity:1; 
stroke-linecap:round; stroke-linejoin:round;">
</g>
<g style="fill:#FFFFFF; fill-opacity:1.0; 
stroke:#FFFFFF; stroke-width:0; stroke-opacity:1; 
stroke-linecap:round; stroke-linejoin:round;">
<circle cx="77032.4" cy="50708.7" r="315" /> 
</g>
<g style="fill:#FFFFFF; fill-opacity:1.0; 
stroke:#FFFFFF; stroke-width:39.3701; stroke-opacity:1; 
stroke-linecap:round; stroke-linejoin:round;">
</g>
<g style="fill:#FFFFFF; fill-opacity:1.0; 
stroke:#FFFFFF; stroke-width:0; stroke-opacity:1; 
stroke-linecap:round; stroke-linejoin:round;">
<circle cx="62032.4" cy="50708.7" r="315" /> 
</g>
<g style="fill:#FFFFFF; fill-opacity:1.0; 
stroke:#FFFFFF; stroke-width:39.3701; stroke-opacity:1; 
stroke-linecap:round; stroke-linejoin:round;">
</g>
<g style="fill:#FFFFFF; fill-opacity:1.0; 
stroke:#FFFFFF; stroke-width:0; stroke-opacity:1; 
stroke-linecap:round; stroke-linejoin:round;">
<circle cx="61532.4" cy="43708.7" r="315" /> 
</g>
<g style="fill:#FFFFFF; fill-opacity:1.0; 
stroke:#FFFFFF; stroke-width:39.3701; stroke-opacity:1; 
stroke-linecap:round; stroke-linejoin:round;">
</g>
<g style="fill:#FFFFFF; fill-opacity:1.0; 
stroke:#FFFFFF; stroke-width:0; stroke-opacity:1; 
stroke-linecap:round; stroke-linejoin:round;">
<circle cx="88032.4" cy="50708.7" r="315" /> 
</g>
<g style="fill:#FFFFFF; fill-opacity:1.0; 
stroke:#FFFFFF; stroke-width:39.3701; stroke-opacity:1; 
stroke-linecap:round; stroke-linejoin:round;">
</g>
<g style="fill:#FFFFFF; fill-opacity:1.0; 
stroke:#FFFFFF; stroke-width:0; stroke-opacity:1; 
stroke-linecap:round; stroke-linejoin:round;">
<circle cx="76032.4" cy="50708.7" r="315" /> 
</g>
<g style="fill:#FFFFFF; fill-opacity:1.0; 
stroke:#FFFFFF; stroke-width:39.3701; stroke-opacity:1; 
stroke-linecap:round; stroke-linejoin:round;">
</g>
<g style="fill:#FFFFFF; fill-opacity:1.0; 
stroke:#FFFFFF; stroke-width:0; stroke-opacity:1; 
stroke-linecap:round; stroke-linejoin:round;">
<circle cx="64032.4" cy="50708.7" r="315" /> 
</g>
<g style="fill:#FFFFFF; fill-opacity:1.0; 
stroke:#FFFFFF; stroke-width:39.3701; stroke-opacity:1; 
stroke-linecap:round; stroke-linejoin:round;">
</g>
<g style="fill:#FFFFFF; fill-opacity:1.0; 
stroke:#FFFFFF; stroke-width:0; stroke-opacity:1; 
stroke-linecap:round; stroke-linejoin:round;">
<circle cx="60532.4" cy="43708.7" r="315" /> 
</g>
<g style="fill:#FFFFFF; fill-opacity:1.0; 
stroke:#FFFFFF; stroke-width:39.3701; stroke-opacity:1; 
stroke-linecap:round; stroke-linejoin:round;">
</g>
<g style="fill:#FFFFFF; fill-opacity:1.0; 
stroke:#FFFFFF; stroke-width:0; stroke-opacity:1; 
stroke-linecap:round; stroke-linejoin:round;">
<circle cx="87032.4" cy="50708.7" r="315" /> 
</g>
<g style="fill:#FFFFFF; fill-opacity:1.0; 
stroke:#FFFFFF; stroke-width:39.3701; stroke-opacity:1; 
stroke-linecap:round; stroke-linejoin:round;">
</g>
<g style="fill:#FFFFFF; fill-opacity:1.0; 
stroke:#FFFFFF; stroke-width:0; stroke-opacity:1; 
stroke-linecap:round; stroke-linejoin:round;">
<circle cx="75032.4" cy="50708.7" r="315" /> 
</g>
<g style="fill:#FFFFFF; fill-opacity:1.0; 
stroke:#FFFFFF; stroke-width:39.3701; stroke-opacity:1; 
stroke-linecap:round; stroke-linejoin:round;">
</g>
<g style="fill:#FFFFFF; fill-opacity:1.0; 
stroke:#FFFFFF; stroke-width:0; stroke-opacity:1; 
stroke-linecap:round; stroke-linejoin:round;">
<circle cx="63032.4" cy="50708.7" r="315" /> 
</g>
<g style="fill:#FFFFFF; fill-opacity:1.0; 
stroke:#FFFFFF; stroke-width:39.3701; stroke-opacity:1; 
stroke-linecap:round; stroke-linejoin:round;">
</g>
<g style="fill:#FFFFFF; fill-opacity:1.0; 
stroke:#FFFFFF; stroke-width:0; stroke-opacity:1; 
stroke-linecap:round; stroke-linejoin:round;">
<polyline style="fill-rule:evenodd;"
points="72652,43663
72652,44253
73163,44253
73163,43663
72652,43663
" /> 
<polyline style="fill-rule:evenodd;"
points="73399,43663
73399,44253
73910,44253
73910,43663
73399,43663
" /> 
<polyline style="fill-rule:evenodd;"
points="58450,56075
58450,57341
59716,57341
59716,56075
58450,56075
" /> 
<polyline style="fill-rule:evenodd;"
points="52378,56075
52378,57341
53644,57341
53644,56075
52378,56075
" /> 
<polyline style="fill-rule:evenodd;"
points="56719,59167
56719,59760
57312,59760
57312,59167
56719,59167
" /> 
<polyline style="fill-rule:evenodd;"
points="54751,59167
54751,59760
55344,59760
55344,59167
54751,59167
" /> 
<polyline style="fill-rule:evenodd;"
points="55735,52475
55735,53068
56328,53068
56328,52475
55735,52475
" /> 
<polyline style="fill-rule:evenodd;"
points="57719,52475
57719,53068
58312,53068
58312,52475
57719,52475
" /> 
<polyline style="fill-rule:evenodd;"
points="53751,52475
53751,53068
54344,53068
54344,52475
53751,52475
" /> 
<polyline style="fill-rule:evenodd;"
points="65751,52475
65751,53068
66344,53068
66344,52475
65751,52475
" /> 
<polyline style="fill-rule:evenodd;"
points="69719,52475
69719,53068
70312,53068
70312,52475
69719,52475
" /> 
<polyline style="fill-rule:evenodd;"
points="67735,52475
67735,53068
68328,53068
68328,52475
67735,52475
" /> 
<polyline style="fill-rule:evenodd;"
points="66751,59167
66751,59760
67344,59760
67344,59167
66751,59167
" /> 
<polyline style="fill-rule:evenodd;"
points="68719,59167
68719,59760
69312,59760
69312,59167
68719,59167
" /> 
<polyline style="fill-rule:evenodd;"
points="64378,56075
64378,57341
65644,57341
65644,56075
64378,56075
" /> 
<polyline style="fill-rule:evenodd;"
points="70450,56075
70450,57341
71716,57341
71716,56075
70450,56075
" /> 
<polyline style="fill-rule:evenodd;"
points="89751,52475
89751,53068
90344,53068
90344,52475
89751,52475
" /> 
<polyline style="fill-rule:evenodd;"
points="93719,52475
93719,53068
94312,53068
94312,52475
93719,52475
" /> 
<polyline style="fill-rule:evenodd;"
points="91735,52475
91735,53068
92328,53068
92328,52475
91735,52475
" /> 
<polyline style="fill-rule:evenodd;"
points="90751,59167
90751,59760
91344,59760
91344,59167
90751,59167
" /> 
<polyline style="fill-rule:evenodd;"
points="92719,59167
92719,59760
93312,59760
93312,59167
92719,59167
" /> 
<polyline style="fill-rule:evenodd;"
points="88378,56075
88378,57341
89644,57341
89644,56075
88378,56075
" /> 
<polyline style="fill-rule:evenodd;"
points="94450,56075
94450,57341
95716,57341
95716,56075
94450,56075
" /> 
<polyline style="fill-rule:evenodd;"
points="70312,40942
70312,40349
69719,40349
69719,40942
70312,40942
" /> 
<polyline style="fill-rule:evenodd;"
points="66344,40942
66344,40349
65751,40349
65751,40942
66344,40942
" /> 
<polyline style="fill-rule:evenodd;"
points="68328,40942
68328,40349
67735,40349
67735,40942
68328,40942
" /> 
<polyline style="fill-rule:evenodd;"
points="69312,34250
69312,33657
68719,33657
68719,34250
69312,34250
" /> 
<polyline style="fill-rule:evenodd;"
points="67344,34250
67344,33657
66751,33657
66751,34250
67344,34250
" /> 
<polyline style="fill-rule:evenodd;"
points="71686,37341
71686,36075
70420,36075
70420,37341
71686,37341
" /> 
<polyline style="fill-rule:evenodd;"
points="65614,37341
65614,36075
64348,36075
64348,37341
65614,37341
" /> 
<polyline style="fill-rule:evenodd;"
points="94312,40942
94312,40349
93719,40349
93719,40942
94312,40942
" /> 
<polyline style="fill-rule:evenodd;"
points="90344,40942
90344,40349
89751,40349
89751,40942
90344,40942
" /> 
<polyline style="fill-rule:evenodd;"
points="92328,40942
92328,40349
91735,40349
91735,40942
92328,40942
" /> 
<polyline style="fill-rule:evenodd;"
points="93312,34250
93312,33657
92719,33657
92719,34250
93312,34250
" /> 
<polyline style="fill-rule:evenodd;"
points="91344,34250
91344,33657
90751,33657
90751,34250
91344,34250
" /> 
<polyline style="fill-rule:evenodd;"
points="95686,37341
95686,36075
94420,36075
94420,37341
95686,37341
" /> 
<polyline style="fill-rule:evenodd;"
points="89614,37341
89614,36075
88348,36075
88348,37341
89614,37341
" /> 
<polyline style="fill-rule:evenodd;"
points="75370,44840
74898,44840
74898,45076
75370,45076
75370,44840
" /> 
<polyline style="fill-rule:evenodd;"
points="75370,45340
74898,45340
74898,45576
75370,45576
75370,45340
" /> 
<polyline style="fill-rule:evenodd;"
points="75370,45840
74898,45840
74898,46076
75370,46076
75370,45840
" /> 
<polyline style="fill-rule:evenodd;"
points="75370,46340
74898,46340
74898,46576
75370,46576
75370,46340
" /> 
<polyline style="fill-rule:evenodd;"
points="75370,46839
74898,46839
74898,47075
75370,47075
75370,46839
" /> 
<polyline style="fill-rule:evenodd;"
points="75370,47339
74898,47339
74898,47575
75370,47575
75370,47339
" /> 
<polyline style="fill-rule:evenodd;"
points="75370,47839
74898,47839
74898,48075
75370,48075
75370,47839
" /> 
<polyline style="fill-rule:evenodd;"
points="75370,48339
74898,48339
74898,48575
75370,48575
75370,48339
" /> 
<polyline style="fill-rule:evenodd;"
points="73166,48339
72694,48339
72694,48575
73166,48575
73166,48339
" /> 
<polyline style="fill-rule:evenodd;"
points="73166,47839
72694,47839
72694,48075
73166,48075
73166,47839
" /> 
<polyline style="fill-rule:evenodd;"
points="73166,47339
72694,47339
72694,47575
73166,47575
73166,47339
" /> 
<polyline style="fill-rule:evenodd;"
points="73166,46839
72694,46839
72694,47075
73166,47075
73166,46839
" /> 
<polyline style="fill-rule:evenodd;"
points="73166,46340
72694,46340
72694,46576
73166,46576
73166,46340
" /> 
<polyline style="fill-rule:evenodd;"
points="73166,45840
72694,45840
72694,46076
73166,46076
73166,45840
" /> 
<polyline style="fill-rule:evenodd;"
points="73166,45340
72694,45340
72694,45576
73166,45576
73166,45340
" /> 
<polyline style="fill-rule:evenodd;"
points="73166,44840
72694,44840
72694,45076
73166,45076
73166,44840
" /> 
<circle cx="71532.4" cy="43958.7" r="255.906" /> 
</g>
<g style="fill:#FFFFFF; fill-opacity:1.0; 
stroke:#FFFFFF; stroke-width:39.3701; stroke-opacity:1; 
stroke-linecap:round; stroke-linejoin:round;">
</g>
<g style="fill:#FFFFFF; fill-opacity:1.0; 
stroke:#FFFFFF; stroke-width:0; stroke-opacity:1; 
stroke-linecap:round; stroke-linejoin:round;">
<circle cx="82282.4" cy="45458.7" r="255.906" /> 
</g>
<g style="fill:#FFFFFF; fill-opacity:1.0; 
stroke:#FFFFFF; stroke-width:39.3701; stroke-opacity:1; 
stroke-linecap:round; stroke-linejoin:round;">
</g>
<g style="fill:#FFFFFF; fill-opacity:1.0; 
stroke:#FFFFFF; stroke-width:0; stroke-opacity:1; 
stroke-linecap:round; stroke-linejoin:round;">
<circle cx="83032.4" cy="44958.7" r="255.906" /> 
</g>
<g style="fill:#FFFFFF; fill-opacity:1.0; 
stroke:#FFFFFF; stroke-width:39.3701; stroke-opacity:1; 
stroke-linecap:round; stroke-linejoin:round;">
</g>
<g style="fill:#FFFFFF; fill-opacity:1.0; 
stroke:#FFFFFF; stroke-width:314.961; stroke-opacity:1; 
stroke-linecap:round; stroke-linejoin:round;">
</g>
<g style="fill:#FFFFFF; fill-opacity:0.0; 
stroke:#FFFFFF; stroke-width:314.961; stroke-opacity:1; 
stroke-linecap:round; stroke-linejoin:round;">
<path d="M72908 43958
L71532 43958
" />
<path d="M72908 43958
L72908 44936
" />
<path d="M72908 44936
L72930 44958
" />
</g>
<g style="fill:#FFFFFF; fill-opacity:0.0; 
stroke:#FFFFFF; stroke-width:236.22; stroke-opacity:1; 
stroke-linecap:round; stroke-linejoin:round;">
<path d="M95083 56708
L95083 45208
" />
<path d="M95083 45208
L95083 36738
" />
<path d="M96032 45208
L95083 45208
" />
<path d="M56032 40645
L56032 41958
" />
<path d="M56032 41958
L52782 45208
" />
<path d="M68032 56708
L69032 56708
" />
<path d="M69032 56708
L71083 56708
" />
<path d="M69016 59463
L69016 56724
" />
<path d="M69016 56724
L69032 56708
" />
<path d="M55048 33953
L55048 36692
" />
<path d="M55048 36692
L55032 36708
" />
<path d="M55032 36708
L53850 36708
" />
<path d="M53850 36708
L56032 36708
" />
<path d="M56032 36708
L56032 40112
" />
<path d="M56032 40112
L56032 40645
" />
<path d="M56032 40645
L56032 36708
" />
<path d="M56032 36708
L59053 36708
" />
<path d="M64981 36708
L68032 36708
" />
<path d="M68032 38890
L68032 36708
" />
<path d="M68032 36708
L70184 36708
" />
<path d="M70184 36708
L69032 36708
" />
<path d="M69032 36708
L69016 36692
" />
<path d="M69016 36692
L69016 33953
" />
<path d="M77850 36708
L79032 36708
" />
<path d="M79032 36708
L79048 36692
" />
<path d="M79048 36692
L79048 33953
" />
<path d="M80032 36708
L77850 36708
" />
<path d="M80032 38890
L80032 36708
" />
<path d="M80032 36708
L83053 36708
" />
<path d="M95053 36708
L92032 36708
" />
<path d="M92032 36708
L92032 40645
" />
<path d="M93016 33953
L93016 36708
" />
<path d="M93016 36708
L88981 36708
" />
<path d="M95053 36708
L93032 36708
" />
<path d="M93032 36708
L93016 36692
" />
<path d="M93016 36692
L93016 33953
" />
<path d="M89011 56708
L88032 56708
" />
<path d="M88032 56708
L87032 55708
" />
<path d="M87032 55708
L87032 52458
" />
<path d="M86032 51458
L86032 50708
" />
<path d="M87032 52458
L86032 51458
" />
<path d="M90782 56708
L92032 56708
" />
<path d="M92032 56708
L92032 53304
" />
<path d="M92032 53304
L92032 52771
" />
<path d="M95083 56708
L93032 56708
" />
<path d="M93032 56708
L93016 56724
" />
<path d="M93016 56724
L93016 59463
" />
<path d="M93016 59463
L93016 56708
" />
<path d="M93016 56708
L90782 56708
" />
<path d="M80032 56708
L83083 56708
" />
<path d="M80032 54556
L80032 56708
" />
<path d="M80032 56708
L77880 56708
" />
<path d="M77880 56708
L79032 56708
" />
<path d="M79032 56708
L79048 56724
" />
<path d="M79048 56724
L79048 59463
" />
<path d="M68032 54556
L68032 56708
" />
<path d="M68032 56708
L65880 56708
" />
<path d="M65880 56708
L67032 56708
" />
<path d="M67032 56708
L67048 56724
" />
<path d="M53532 56708
L56032 56708
" />
<path d="M56032 56708
L56032 52771
" />
<path d="M53532 56708
L55032 56708
" />
<path d="M55032 56708
L55048 56724
" />
<path d="M55048 56724
L55048 59463
" />
<path d="M55048 59463
L55048 56708
" />
<path d="M55048 56708
L59083 56708
" />
<path d="M53011 56708
L53532 56708
" />
<path d="M90782 56708
L89011 56708
" />
<path d="M80032 52771
L80032 54556
" />
<path d="M77880 56708
L77011 56708
" />
<path d="M65011 56708
L62782 56708
" />
<path d="M62782 56708
L62032 55958
" />
<path d="M62032 55958
L62032 50708
" />
<path d="M80032 52771
L80032 52708
" />
<path d="M80032 52708
L78032 50708
" />
<path d="M78032 50708
L77032 50708
" />
<path d="M68032 52771
L68032 54556
" />
<path d="M65880 56708
L65011 56708
" />
<path d="M80032 40645
L80032 38890
" />
<path d="M77850 36708
L76981 36708
" />
<path d="M52981 36708
L53850 36708
" />
<path d="M70184 36708
L71053 36708
" />
<path d="M68032 38890
L68032 40112
" />
<path d="M68032 40112
L68032 40645
" />
<path d="M95083 36738
L95053 36708
" />
<path d="M75134 48457
L75134 48811
" />
<path d="M77031 50708
L77032 50708
" />
<path d="M75134 48811
L77031 50708
" />
<path d="M73782 47577
L73782 45838
" />
<path d="M73782 45838
L73402 45458
" />
<path d="M75134 48457
L74662 48457
" />
<path d="M74662 48457
L73782 47577
" />
<path d="M73655 43958
L73655 45205
" />
<path d="M73655 45205
L73402 45458
" />
<path d="M73402 45458
L72930 45458
" />
<path d="M75134 45458
L74662 45458
" />
<path d="M74532 45328
L74532 43458
" />
<path d="M64282 43708
L64282 44958
" />
<path d="M63782 45458
L60032 45458
" />
<path d="M74662 45458
L74532 45328
" />
<path d="M74532 43458
L74282 43208
" />
<path d="M60032 45458
L59532 44958
" />
<path d="M59532 44958
L59532 43708
" />
<path d="M74282 43208
L64782 43208
" />
<path d="M64782 43208
L64282 43708
" />
<path d="M64282 44958
L63782 45458
" />
<path d="M82282 45458
L75134 45458
" />
<path d="M75032 52458
L76032 51458
" />
<path d="M87032 50708
L87032 50208
" />
<path d="M87032 50208
L86532 49708
" />
<path d="M86532 49708
L85532 49708
" />
<path d="M92032 58458
L92032 60208
" />
<path d="M91782 60458
L76032 60458
" />
<path d="M75032 59458
L75032 52458
" />
<path d="M85532 49708
L85032 50208
" />
<path d="M85032 50208
L85032 51458
" />
<path d="M85032 51458
L86032 52458
" />
<path d="M86032 52458
L86032 56958
" />
<path d="M86032 56958
L87282 58208
" />
<path d="M87282 58208
L91782 58208
" />
<path d="M91782 58208
L92032 58458
" />
<path d="M92032 60208
L91782 60458
" />
<path d="M76032 60458
L75032 59458
" />
<path d="M76032 51458
L76032 50708
" />
<path d="M72930 47957
L73402 47957
" />
<path d="M73402 47957
L76032 50587
" />
<path d="M76032 50587
L76032 50708
" />
<path d="M64032 48958
L64032 50708
" />
<path d="M64533 48457
L64032 48958
" />
<path d="M72930 48457
L64533 48457
" />
<path d="M72930 48457
L73048 48457
" />
<path d="M73048 48457
L75032 50441
" />
<path d="M75032 50441
L75032 50708
" />
<path d="M75134 44958
L75282 44958
" />
<path d="M75032 42708
L61032 42708
" />
<path d="M75282 44958
L75532 44708
" />
<path d="M75532 44708
L75532 43208
" />
<path d="M75532 43208
L75032 42708
" />
<path d="M61032 42708
L60532 43208
" />
<path d="M60532 43208
L60532 43708
" />
<path d="M75134 44958
L83032 44958
" />
<path d="M75134 47457
L82781 47457
" />
<path d="M83282 51708
L84282 52708
" />
<path d="M82781 47457
L83282 47958
" />
<path d="M83282 47958
L83282 51708
" />
<path d="M84282 52708
L84282 58458
" />
<path d="M84282 58458
L83277 59463
" />
<path d="M83277 59463
L81016 59463
" />
<path d="M81197 59463
L81016 59463
" />
<path d="M75134 45958
L83282 45958
" />
<path d="M83282 45958
L85782 43458
" />
<path d="M85782 43458
L85782 35708
" />
<path d="M85782 35708
L84027 33953
" />
<path d="M84027 33953
L81016 33953
" />
<path d="M72930 45958
L59032 45958
" />
<path d="M59032 45958
L58532 45458
" />
<path d="M58532 45458
L58532 42958
" />
<path d="M58532 42958
L62282 39208
" />
<path d="M62282 39208
L62282 35708
" />
<path d="M62282 35708
L64037 33953
" />
<path d="M64037 33953
L66515 33953
" />
<path d="M66515 33953
L67048 33953
" />
<path d="M72930 47457
L61533 47457
" />
<path d="M61533 47457
L61032 47958
" />
<path d="M61032 47958
L61032 58458
" />
<path d="M61032 58458
L62037 59463
" />
<path d="M62037 59463
L67048 59463
" />
<path d="M72930 46957
L60783 46957
" />
<path d="M60783 46957
L60282 47458
" />
<path d="M60282 47458
L60282 58458
" />
<path d="M60282 58458
L59277 59463
" />
<path d="M59277 59463
L57016 59463
" />
<path d="M72930 46458
L58282 46458
" />
<path d="M58282 46458
L57782 45958
" />
<path d="M57782 45958
L57782 42708
" />
<path d="M61532 35708
L59777 33953
" />
<path d="M57782 42708
L61532 38958
" />
<path d="M61532 38958
L61532 35708
" />
<path d="M59777 33953
L57016 33953
" />
<path d="M75134 46458
L83532 46458
" />
<path d="M83532 46458
L86282 43708
" />
<path d="M86282 43708
L86282 35708
" />
<path d="M86282 35708
L88037 33953
" />
<path d="M88037 33953
L91048 33953
" />
<path d="M75134 46957
L83531 46957
" />
<path d="M83531 46957
L84032 47458
" />
<path d="M84032 47458
L84032 51458
" />
<path d="M85032 52458
L85032 58458
" />
<path d="M84032 51458
L85032 52458
" />
<path d="M85032 58458
L86037 59463
" />
<path d="M86037 59463
L91048 59463
" />
</g>
<g style="fill:#FFFFFF; fill-opacity:1.0; 
stroke:#FFFFFF; stroke-width:100; stroke-opacity:1; 
stroke-linecap:round; stroke-linejoin:round;">
<polyline style="fill-rule:evenodd;"
points="51251,61741
97568,61741
97568,60643
97218,60643
97076,60988
96813,61251
96469,61394
96097,61394
95752,61252
95489,60989
95346,60645
95346,60273
95488,59929
95751,59665
95967,59576
93562,59576
93562,59809
93524,59901
93454,59972
93362,60010
93128,60010
93066,59947
93066,59513
93500,59513
93562,59576
95967,59576
96095,59522
96467,59522
96811,59664
97075,59927
97218,60271
97218,60643
97568,60643
97568,59117
93562,59117
93562,59351
93500,59413
93066,59413
93066,58979
92966,58979
92966,59413
92958,59413
92958,59513
92966,59513
92966,59947
92903,60010
92670,60010
92594,59978
92594,60208
92551,60423
92429,60605
92179,60855
91997,60977
91782,61020
76032,61020
75817,60977
75692,60893
53218,60893
53076,61238
52813,61501
52469,61644
52097,61644
51752,61502
51489,61239
51346,60895
51346,60523
51488,60179
51751,59915
52095,59772
52467,59772
52811,59914
53075,60177
53218,60521
53218,60893
75692,60893
75635,60855
74635,59855
74513,59673
74506,59637
74493,59576
69562,59576
69562,59809
69524,59901
69454,59972
69362,60010
69128,60010
69066,59947
69066,59513
68966,59513
68966,59947
68903,60010
68670,60010
68578,59972
68507,59901
68469,59809
68469,59576
68532,59513
68966,59513
69066,59513
69500,59513
69562,59576
74493,59576
74470,59458
74470,59117
69562,59117
69562,59351
69500,59413
69066,59413
69066,58979
68966,58979
68966,59413
68532,59413
68469,59351
68469,59117
68507,59025
68578,58955
68670,58917
68903,58917
68966,58979
69066,58979
69128,58917
69362,58917
69454,58955
69524,59025
69562,59117
74470,59117
74470,56821
71966,56821
71966,57391
71928,57483
71857,57553
71766,57591
71195,57591
71133,57529
71133,56758
71033,56758
71033,57529
70970,57591
70400,57591
70308,57553
70238,57483
70200,57391
70200,56821
65894,56821
65894,57391
65856,57483
65785,57553
65694,57591
65123,57591
65061,57529
65061,56758
64961,56758
64961,57529
64898,57591
64328,57591
64236,57553
64166,57483
64128,57391
64128,56821
64190,56758
64961,56758
65061,56758
65831,56758
65894,56821
70200,56821
70262,56758
71033,56758
71133,56758
71903,56758
71966,56821
74470,56821
74470,56025
71966,56025
71966,56596
71903,56658
71133,56658
71133,55888
71033,55888
71033,56658
70262,56658
70200,56596
70200,56025
65894,56025
65894,56596
65831,56658
65061,56658
65061,55888
64961,55888
64961,56658
64190,56658
64128,56596
64128,56025
64166,55934
64236,55863
64328,55825
64898,55825
64961,55888
65061,55888
65123,55825
65694,55825
65785,55863
65856,55934
65894,56025
70200,56025
70238,55934
70308,55863
70400,55825
70970,55825
71033,55888
71133,55888
71195,55825
71766,55825
71857,55863
71928,55934
71966,56025
74470,56025
74470,52458
74483,52393
74218,52393
74076,52738
73813,53001
73469,53144
73097,53144
72752,53002
72489,52739
72379,52475
70765,52475
70765,53068
70730,53241
70632,53388
70485,53486
70312,53520
69719,53520
69546,53486
69399,53388
69301,53241
69267,53068
69267,52884
68578,52884
68578,53117
68540,53209
68470,53280
68378,53318
68144,53318
68082,53255
68082,52821
67982,52821
67982,53255
67919,53318
67686,53318
67594,53280
67523,53209
67485,53117
67485,52884
67548,52821
67982,52821
68082,52821
68516,52821
68578,52884
69267,52884
69267,52475
69277,52425
68578,52425
68578,52659
68516,52721
68082,52721
68082,52287
67982,52287
67982,52721
67548,52721
67485,52659
67485,52475
66797,52475
66797,53068
66762,53241
66664,53388
66517,53486
66344,53520
65751,53520
65578,53486
65431,53388
65333,53241
65299,53068
65299,52475
65333,52302
65431,52155
65578,52057
65751,52022
66344,52022
66517,52057
66664,52155
66762,52302
66797,52475
67485,52475
67485,52425
67523,52333
67594,52263
67686,52225
67919,52225
67982,52287
68082,52287
68144,52225
68378,52225
68470,52263
68540,52333
68578,52425
69277,52425
69301,52302
69399,52155
69546,52057
69719,52022
70312,52022
70485,52057
70632,52155
70730,52302
70765,52475
72379,52475
72346,52395
72346,52023
72488,51679
72751,51415
73095,51272
73467,51272
73811,51414
74075,51677
74218,52021
74218,52393
74483,52393
74513,52243
74513,52243
74635,52061
75261,51435
75183,51467
74882,51467
74603,51352
74389,51138
74273,50860
74273,50558
74297,50501
72824,49028
72694,49028
72651,49019
64766,49019
64594,49191
64594,50197
64675,50278
64790,50557
64791,50858
64675,51137
64462,51351
64183,51467
63882,51467
63603,51352
63532,51281
63462,51351
63183,51467
62882,51467
62603,51352
62389,51138
62387,51134
62358,51105
62329,51202
62117,51278
61893,51267
61735,51202
61706,51105
62032,50779
62037,50784
62108,50714
62103,50708
62108,50703
62037,50632
62032,50637
61706,50311
61735,50214
61947,50138
62171,50149
62329,50214
62358,50311
62387,50282
62388,50279
62602,50065
62880,49950
63182,49949
63461,50065
63470,50074
63470,48958
63513,48743
63513,48743
63635,48561
64136,48060
64197,48019
61766,48019
61594,48191
61594,50395
61635,50382
61961,50708
61635,51034
61594,51022
61594,58225
62270,58901
66395,58901
66431,58847
66578,58749
66751,58714
67344,58714
67517,58749
67664,58847
67762,58994
67797,59167
67797,59760
67762,59933
67664,60080
67517,60178
67344,60212
66751,60212
66578,60178
66431,60080
66395,60025
62037,60025
61822,59982
61640,59860
60657,58878
59674,59860
59492,59982
59277,60025
57669,60025
57632,60080
57485,60178
57312,60212
56719,60212
56546,60178
56399,60080
56301,59933
56267,59760
56267,59576
55594,59576
55594,59809
55556,59901
55486,59972
55394,60010
55160,60010
55098,59947
55098,59513
54998,59513
54998,59947
54935,60010
54702,60010
54610,59972
54539,59901
54501,59809
54501,59576
54564,59513
54998,59513
55098,59513
55532,59513
55594,59576
56267,59576
56267,59167
56277,59117
55594,59117
55594,59351
55532,59413
55098,59413
55098,58979
54998,58979
54998,59413
54564,59413
54501,59351
54501,59117
54539,59025
54610,58955
54702,58917
54935,58917
54998,58979
55098,58979
55160,58917
55394,58917
55486,58955
55556,59025
55594,59117
56277,59117
56301,58994
56399,58847
56546,58749
56719,58714
57312,58714
57485,58749
57632,58847
57669,58901
59044,58901
59720,58225
59720,57591
59195,57591
59133,57529
59133,56758
59033,56758
59033,57529
58970,57591
58400,57591
58308,57553
58238,57483
58200,57391
58200,56821
53894,56821
53894,57391
53856,57483
53785,57553
53694,57591
53123,57591
53061,57529
53061,56758
52961,56758
52961,57529
52898,57591
52328,57591
52236,57553
52166,57483
52128,57391
52128,56821
52190,56758
52961,56758
53061,56758
53831,56758
53894,56821
58200,56821
58262,56758
59033,56758
59133,56758
59141,56758
59141,56658
59133,56658
59133,55888
59033,55888
59033,56658
58262,56658
58200,56596
58200,56025
53894,56025
53894,56596
53831,56658
53061,56658
53061,55888
52961,55888
52961,56658
52190,56658
52128,56596
52128,56025
52166,55934
52236,55863
52328,55825
52898,55825
52961,55888
53061,55888
53123,55825
53694,55825
53785,55863
53856,55934
53894,56025
58200,56025
58238,55934
58308,55863
58400,55825
58970,55825
59033,55888
59133,55888
59195,55825
59720,55825
59720,52475
58765,52475
58765,53068
58730,53241
58632,53388
58485,53486
58312,53520
57719,53520
57546,53486
57399,53388
57301,53241
57267,53068
57267,52884
56578,52884
56578,53117
56540,53209
56470,53280
56378,53318
56144,53318
56082,53255
56082,52821
55982,52821
55982,53255
55919,53318
55686,53318
55594,53280
55523,53209
55485,53117
55485,52884
55548,52821
55982,52821
56082,52821
56516,52821
56578,52884
57267,52884
57267,52475
57277,52425
56578,52425
56578,52659
56516,52721
56082,52721
56082,52287
55982,52287
55982,52721
55548,52721
55485,52659
55485,52475
54797,52475
54797,53068
54762,53241
54664,53388
54517,53486
54344,53520
53751,53520
53578,53486
53431,53388
53333,53241
53299,53068
53299,52475
53333,52302
53431,52155
53578,52057
53751,52022
54344,52022
54517,52057
54664,52155
54762,52302
54797,52475
55485,52475
55485,52425
55523,52333
55594,52263
55686,52225
55919,52225
55982,52287
56082,52287
56144,52225
56378,52225
56470,52263
56540,52333
56578,52425
57277,52425
57301,52302
57399,52155
57546,52057
57719,52022
58312,52022
58485,52057
58632,52155
58730,52302
58765,52475
59720,52475
59720,47458
59763,47243
59763,47243
59885,47061
59926,47020
58282,47020
58067,46977
57885,46855
57388,46358
53541,46358
53425,46637
53212,46851
52933,46967
52632,46967
52353,46852
52139,46638
52023,46360
52023,46058
52138,45779
52352,45565
52356,45564
52385,45534
52288,45505
52212,45294
52223,45069
52288,44911
52385,44882
52711,45208
52706,45214
52776,45284
52782,45279
52787,45284
52858,45214
52853,45208
53179,44882
53276,44911
53352,45123
53341,45347
53276,45505
53179,45534
53208,45563
53211,45565
53425,45778
53540,46057
53541,46358
57388,46358
57385,46355
57263,46173
57240,46061
57220,45958
57220,44811
53108,44811
52782,45137
52456,44811
52485,44714
52697,44638
52921,44649
53079,44714
53108,44811
57220,44811
57220,42708
57263,42493
57263,42493
57385,42311
58301,41394
57719,41394
57546,41360
57399,41262
57301,41115
57267,40942
57267,40758
56578,40758
56578,40991
56540,41083
56470,41154
56378,41192
56144,41192
56082,41129
56082,40695
55982,40695
55982,41129
55919,41192
55686,41192
55594,41154
55523,41083
55485,40991
55485,40758
55548,40695
55982,40695
56082,40695
56516,40695
56578,40758
57267,40758
57267,40349
57277,40299
56578,40299
56578,40533
56516,40595
56082,40595
56082,40161
55982,40161
55982,40595
55548,40595
55485,40533
55485,40349
54797,40349
54797,40942
54762,41115
54664,41262
54517,41360
54344,41394
53751,41394
53578,41360
53431,41262
53333,41115
53299,40942
53299,40349
53333,40176
53431,40029
53578,39931
53751,39896
54344,39896
54517,39931
54664,40029
54762,40176
54797,40349
55485,40349
55485,40299
55523,40207
55594,40137
55686,40099
55919,40099
55982,40161
56082,40161
56144,40099
56378,40099
56470,40137
56540,40207
56578,40299
57277,40299
57301,40176
57399,40029
57546,39931
57719,39896
58312,39896
58485,39931
58632,40029
58730,40176
58765,40349
58765,40931
60970,38725
60970,36821
59936,36821
59936,37391
59898,37483
59827,37553
59736,37591
59165,37591
59103,37529
59103,36758
59003,36758
59003,37529
58940,37591
58370,37591
58278,37553
58208,37483
58170,37391
58170,36821
53864,36821
53864,37391
53826,37483
53755,37553
53664,37591
53093,37591
53031,37529
53031,36758
52931,36758
52931,37529
52868,37591
52298,37591
52206,37553
52136,37483
52098,37391
52098,36821
52160,36758
52931,36758
53031,36758
53801,36758
53864,36821
58170,36821
58232,36758
59003,36758
59103,36758
59873,36758
59936,36821
60970,36821
60970,36025
59936,36025
59936,36596
59873,36658
59103,36658
59103,35888
59003,35888
59003,36658
58232,36658
58170,36596
58170,36025
53864,36025
53864,36596
53801,36658
53031,36658
53031,35888
52931,35888
52931,36658
52160,36658
52098,36596
52098,36025
52136,35934
52206,35863
52298,35825
52868,35825
52931,35888
53031,35888
53093,35825
53664,35825
53755,35863
53826,35934
53864,36025
58170,36025
58208,35934
58278,35863
58370,35825
58940,35825
59003,35888
59103,35888
59165,35825
59736,35825
59827,35863
59898,35934
59936,36025
60970,36025
60970,35941
59544,34515
57669,34515
57632,34570
57485,34668
57312,34702
56719,34702
56546,34668
56399,34570
56301,34423
56267,34250
56267,34066
55594,34066
55594,34299
55556,34391
55486,34462
55394,34500
55160,34500
55098,34437
55098,34003
54998,34003
54998,34437
54935,34500
54702,34500
54610,34462
54539,34391
54501,34299
54501,34066
54564,34003
54998,34003
55098,34003
55532,34003
55594,34066
56267,34066
56267,33657
56277,33607
55594,33607
55594,33841
55532,33903
55098,33903
55098,33469
54998,33469
54998,33903
54564,33903
54501,33841
54501,33607
54539,33515
54610,33445
54702,33407
54935,33407
54998,33469
55098,33469
55160,33407
55394,33407
55486,33445
55556,33515
55594,33607
56277,33607
56301,33484
56399,33337
56546,33239
56719,33204
57312,33204
57485,33239
57632,33337
57669,33391
59777,33391
59992,33434
60174,33556
61907,35289
63640,33556
63822,33434
64037,33391
66395,33391
66431,33337
66578,33239
66751,33204
67344,33204
67517,33239
67664,33337
67762,33484
67797,33657
67797,34250
67762,34423
67664,34570
67517,34668
67344,34702
66751,34702
66578,34668
66431,34570
66395,34515
64270,34515
62844,35941
62844,39208
62801,39423
62679,39605
59303,42982
59380,42950
59682,42949
59961,43065
59992,43096
60013,42993
60013,42993
60135,42811
60635,42311
60817,42189
61032,42146
75032,42146
75211,42182
75247,42189
75429,42311
75929,42811
75929,42811
76051,42993
76094,43208
76094,44396
82604,44396
82635,44365
82892,44259
83170,44258
83428,44365
83625,44561
83701,44745
85220,43225
85220,40349
82765,40349
82765,40942
82730,41115
82632,41262
82485,41360
82312,41394
81719,41394
81546,41360
81399,41262
81301,41115
81267,40942
81267,40758
80578,40758
80578,40991
80540,41083
80470,41154
80378,41192
80144,41192
80082,41129
80082,40695
79982,40695
79982,41129
79919,41192
79686,41192
79594,41154
79523,41083
79485,40991
79485,40758
79548,40695
79982,40695
80082,40695
80516,40695
80578,40758
81267,40758
81267,40349
81277,40299
80578,40299
80578,40533
80516,40595
80082,40595
80082,40161
79982,40161
79982,40595
79548,40595
79485,40533
79485,40349
78797,40349
78797,40942
78762,41115
78664,41262
78517,41360
78344,41394
77751,41394
77578,41360
77431,41262
77333,41115
77299,40942
77299,40893
74968,40893
74826,41238
74563,41501
74219,41644
73847,41644
73502,41502
73239,41239
73096,40895
73096,40523
73168,40349
70765,40349
70765,40942
70730,41115
70632,41262
70485,41360
70312,41394
69719,41394
69546,41360
69399,41262
69301,41115
69267,40942
69267,40758
68578,40758
68578,40991
68540,41083
68470,41154
68378,41192
68144,41192
68082,41129
68082,40695
67982,40695
67982,41129
67919,41192
67686,41192
67594,41154
67523,41083
67485,40991
67485,40758
67548,40695
67982,40695
68082,40695
68516,40695
68578,40758
69267,40758
69267,40349
69277,40299
68578,40299
68578,40533
68516,40595
68082,40595
68082,40161
67982,40161
67982,40595
67548,40595
67485,40533
67485,40349
66797,40349
66797,40942
66762,41115
66664,41262
66517,41360
66344,41394
65751,41394
65578,41360
65431,41262
65333,41115
65299,40942
65299,40349
65333,40176
65431,40029
65578,39931
65751,39896
66344,39896
66517,39931
66664,40029
66762,40176
66797,40349
67485,40349
67485,40299
67523,40207
67594,40137
67686,40099
67919,40099
67982,40161
68082,40161
68144,40099
68378,40099
68470,40137
68540,40207
68578,40299
69277,40299
69301,40176
69399,40029
69546,39931
69719,39896
70312,39896
70485,39931
70632,40029
70730,40176
70765,40349
73168,40349
73238,40179
73501,39915
73845,39772
74217,39772
74561,39914
74825,40177
74968,40521
74968,40893
77299,40893
77299,40349
77333,40176
77431,40029
77578,39931
77751,39896
78344,39896
78517,39931
78664,40029
78762,40176
78797,40349
79485,40349
79485,40299
79523,40207
79594,40137
79686,40099
79919,40099
79982,40161
80082,40161
80144,40099
80378,40099
80470,40137
80540,40207
80578,40299
81277,40299
81301,40176
81399,40029
81546,39931
81719,39896
82312,39896
82485,39931
82632,40029
82730,40176
82765,40349
85220,40349
85220,36821
83936,36821
83936,37391
83898,37483
83827,37553
83736,37591
83165,37591
83103,37529
83103,36758
83003,36758
83003,37529
82940,37591
82370,37591
82278,37553
82208,37483
82170,37391
82170,36821
77864,36821
77864,37391
77826,37483
77755,37553
77664,37591
77093,37591
77031,37529
77031,36758
76931,36758
76931,37529
76868,37591
76298,37591
76206,37553
76136,37483
76098,37391
76098,36821
71936,36821
71936,37391
71898,37483
71827,37553
71736,37591
71165,37591
71103,37529
71103,36758
71003,36758
71003,37529
70940,37591
70370,37591
70278,37553
70208,37483
70170,37391
70170,36821
65864,36821
65864,37391
65826,37483
65755,37553
65664,37591
65093,37591
65031,37529
65031,36758
64931,36758
64931,37529
64868,37591
64298,37591
64206,37553
64136,37483
64098,37391
64098,36821
64160,36758
64931,36758
65031,36758
65801,36758
65864,36821
70170,36821
70232,36758
71003,36758
71103,36758
71873,36758
71936,36821
76098,36821
76160,36758
76931,36758
77031,36758
77801,36758
77864,36821
82170,36821
82232,36758
83003,36758
83103,36758
83873,36758
83936,36821
85220,36821
85220,36025
83936,36025
83936,36596
83873,36658
83103,36658
83103,35888
83003,35888
83003,36658
82232,36658
82170,36596
82170,36025
77864,36025
77864,36596
77801,36658
77031,36658
77031,35888
76931,35888
76931,36658
76160,36658
76098,36596
76098,36025
71936,36025
71936,36596
71873,36658
71103,36658
71103,35888
71003,35888
71003,36658
70232,36658
70170,36596
70170,36025
65864,36025
65864,36596
65801,36658
65031,36658
65031,35888
64931,35888
64931,36658
64160,36658
64098,36596
64098,36025
64136,35934
64206,35863
64298,35825
64868,35825
64931,35888
65031,35888
65093,35825
65664,35825
65755,35863
65826,35934
65864,36025
70170,36025
70208,35934
70278,35863
70370,35825
70940,35825
71003,35888
71103,35888
71165,35825
71736,35825
71827,35863
71898,35934
71936,36025
76098,36025
76136,35934
76206,35863
76298,35825
76868,35825
76931,35888
77031,35888
77093,35825
77664,35825
77755,35863
77826,35934
77864,36025
82170,36025
82208,35934
82278,35863
82370,35825
82940,35825
83003,35888
83103,35888
83165,35825
83736,35825
83827,35863
83898,35934
83936,36025
85220,36025
85220,35941
83794,34515
81669,34515
81632,34570
81485,34668
81312,34702
80719,34702
80546,34668
80399,34570
80301,34423
80267,34250
80267,34066
79594,34066
79594,34299
79556,34391
79486,34462
79394,34500
79160,34500
79098,34437
79098,34003
78998,34003
78998,34437
78935,34500
78702,34500
78610,34462
78539,34391
78501,34299
78501,34066
69562,34066
69562,34299
69524,34391
69454,34462
69362,34500
69128,34500
69066,34437
69066,34003
68966,34003
68966,34437
68903,34500
68670,34500
68578,34462
68507,34391
68469,34299
68469,34066
68532,34003
68966,34003
69066,34003
69500,34003
69562,34066
78501,34066
78564,34003
78998,34003
79098,34003
79532,34003
79594,34066
80267,34066
80267,33657
80277,33607
79594,33607
79594,33841
79532,33903
79098,33903
79098,33469
78998,33469
78998,33903
78564,33903
78501,33841
78501,33607
69562,33607
69562,33841
69500,33903
69066,33903
69066,33469
68966,33469
68966,33903
68532,33903
68469,33841
68469,33607
68507,33515
68578,33445
68670,33407
68903,33407
68966,33469
69066,33469
69128,33407
69362,33407
69454,33445
69524,33515
69562,33607
78501,33607
78539,33515
78610,33445
78702,33407
78935,33407
78998,33469
79098,33469
79160,33407
79394,33407
79486,33445
79556,33515
79594,33607
80277,33607
80301,33484
80399,33337
80546,33239
80719,33204
81312,33204
81485,33239
81632,33337
81669,33391
84027,33391
84242,33434
84424,33556
86032,35164
87640,33556
87822,33434
88037,33391
90395,33391
90431,33337
90578,33239
90751,33204
91344,33204
91517,33239
91664,33337
91762,33484
91797,33657
91797,34250
91762,34423
91664,34570
91517,34668
91344,34702
90751,34702
90578,34668
90431,34570
90395,34515
88270,34515
86844,35941
86844,43708
86814,43860
86801,43923
86679,44105
84076,46708
84429,47061
84429,47061
84551,47243
84594,47458
84594,49872
84635,49811
85135,49311
85317,49189
85532,49146
86532,49146
86711,49182
86747,49189
86929,49311
87429,49811
87429,49811
87551,49993
87571,50096
87602,50065
87880,49950
88182,49949
88461,50065
88675,50278
88790,50557
88791,50858
88675,51137
88462,51351
88183,51467
87882,51467
87603,51352
87532,51281
87462,51351
87183,51467
86882,51467
86603,51352
86389,51138
86387,51134
86358,51105
86329,51202
86117,51278
85893,51267
85735,51202
85706,51105
86032,50779
86037,50784
86108,50714
86103,50708
86108,50703
86037,50632
86032,50637
86026,50632
85956,50703
85961,50708
85635,51034
85594,51022
85594,51225
86429,52061
86429,52061
86551,52243
86594,52458
86594,56725
87515,57646
91782,57646
91997,57689
92179,57811
92429,58061
92551,58243
92594,58458
92594,58948
92670,58917
92903,58917
92966,58979
93066,58979
93128,58917
93362,58917
93454,58955
93524,59025
93562,59117
97568,59117
97568,56821
95966,56821
95966,57391
95928,57483
95857,57553
95766,57591
95195,57591
95133,57529
95133,56758
95033,56758
95033,57529
94970,57591
94400,57591
94308,57553
94238,57483
94200,57391
94200,56821
89894,56821
89894,57391
89856,57483
89785,57553
89694,57591
89123,57591
89061,57529
89061,56758
88961,56758
88961,57529
88898,57591
88328,57591
88236,57553
88166,57483
88128,57391
88128,56821
88190,56758
88961,56758
89061,56758
89831,56758
89894,56821
94200,56821
94262,56758
95033,56758
95133,56758
95903,56758
95966,56821
97568,56821
97568,56025
95966,56025
95966,56596
95903,56658
95133,56658
95133,55888
95033,55888
95033,56658
94262,56658
94200,56596
94200,56025
89894,56025
89894,56596
89831,56658
89061,56658
89061,55888
88961,55888
88961,56658
88190,56658
88128,56596
88128,56025
88166,55934
88236,55863
88328,55825
88898,55825
88961,55888
89061,55888
89123,55825
89694,55825
89785,55863
89856,55934
89894,56025
94200,56025
94238,55934
94308,55863
94400,55825
94970,55825
95033,55888
95133,55888
95195,55825
95766,55825
95857,55863
95928,55934
95966,56025
97568,56025
97568,52475
94765,52475
94765,53068
94730,53241
94632,53388
94485,53486
94312,53520
93719,53520
93546,53486
93399,53388
93301,53241
93267,53068
93267,52884
92578,52884
92578,53117
92540,53209
92470,53280
92378,53318
92144,53318
92082,53255
92082,52821
91982,52821
91982,53255
91919,53318
91686,53318
91594,53280
91523,53209
91485,53117
91485,52884
91548,52821
91982,52821
92082,52821
92516,52821
92578,52884
93267,52884
93267,52475
93277,52425
92578,52425
92578,52659
92516,52721
92082,52721
92082,52287
91982,52287
91982,52721
91548,52721
91485,52659
91485,52475
90797,52475
90797,53068
90762,53241
90664,53388
90517,53486
90344,53520
89751,53520
89578,53486
89431,53388
89333,53241
89299,53068
89299,52475
89333,52302
89431,52155
89578,52057
89751,52022
90344,52022
90517,52057
90664,52155
90762,52302
90797,52475
91485,52475
91485,52425
91523,52333
91594,52263
91686,52225
91919,52225
91982,52287
92082,52287
92144,52225
92378,52225
92470,52263
92540,52333
92578,52425
93277,52425
93301,52302
93399,52155
93546,52057
93719,52022
94312,52022
94485,52057
94632,52155
94730,52302
94765,52475
97568,52475
97568,46358
96791,46358
96675,46637
96462,46851
96183,46967
95882,46967
95603,46852
95389,46638
95273,46360
95273,46058
95388,45779
95602,45565
95606,45564
95635,45534
95538,45505
95462,45294
95473,45069
95538,44911
95635,44882
95961,45208
95956,45214
96026,45284
96032,45279
96037,45284
96108,45214
96103,45208
96429,44882
96526,44911
96602,45123
96591,45347
96526,45505
96429,45534
96458,45563
96461,45565
96675,45778
96790,46057
96791,46358
97568,46358
97568,44811
96358,44811
96032,45137
95706,44811
95735,44714
95947,44638
96171,44649
96329,44714
96358,44811
97568,44811
97568,40349
94765,40349
94765,40942
94730,41115
94632,41262
94485,41360
94312,41394
93719,41394
93546,41360
93399,41262
93301,41115
93267,40942
93267,40758
92578,40758
92578,40991
92540,41083
92470,41154
92378,41192
92144,41192
92082,41129
92082,40695
91982,40695
91982,41129
91919,41192
91686,41192
91594,41154
91523,41083
91485,40991
91485,40758
91548,40695
91982,40695
92082,40695
92516,40695
92578,40758
93267,40758
93267,40349
93277,40299
92578,40299
92578,40533
92516,40595
92082,40595
92082,40161
91982,40161
91982,40595
91548,40595
91485,40533
91485,40349
90797,40349
90797,40942
90762,41115
90664,41262
90517,41360
90344,41394
89751,41394
89578,41360
89431,41262
89333,41115
89299,40942
89299,40349
89333,40176
89431,40029
89578,39931
89751,39896
90344,39896
90517,39931
90664,40029
90762,40176
90797,40349
91485,40349
91485,40299
91523,40207
91594,40137
91686,40099
91919,40099
91982,40161
92082,40161
92144,40099
92378,40099
92470,40137
92540,40207
92578,40299
93277,40299
93301,40176
93399,40029
93546,39931
93719,39896
94312,39896
94485,39931
94632,40029
94730,40176
94765,40349
97568,40349
97568,36821
95936,36821
95936,37391
95898,37483
95827,37553
95736,37591
95165,37591
95103,37529
95103,36758
95003,36758
95003,37529
94940,37591
94370,37591
94278,37553
94208,37483
94170,37391
94170,36821
89864,36821
89864,37391
89826,37483
89755,37553
89664,37591
89093,37591
89031,37529
89031,36758
88931,36758
88931,37529
88868,37591
88298,37591
88206,37553
88136,37483
88098,37391
88098,36821
88160,36758
88931,36758
89031,36758
89801,36758
89864,36821
94170,36821
94232,36758
95003,36758
95103,36758
95873,36758
95936,36821
97568,36821
97568,36025
95936,36025
95936,36596
95873,36658
95103,36658
95103,35888
95003,35888
95003,36658
94232,36658
94170,36596
94170,36025
89864,36025
89864,36596
89801,36658
89031,36658
89031,35888
88931,35888
88931,36658
88160,36658
88098,36596
88098,36025
88136,35934
88206,35863
88298,35825
88868,35825
88931,35888
89031,35888
89093,35825
89664,35825
89755,35863
89826,35934
89864,36025
94170,36025
94208,35934
94278,35863
94370,35825
94940,35825
95003,35888
95103,35888
95165,35825
95736,35825
95827,35863
95898,35934
95936,36025
97568,36025
97568,34066
93562,34066
93562,34299
93524,34391
93454,34462
93362,34500
93128,34500
93066,34437
93066,34003
92966,34003
92966,34437
92903,34500
92670,34500
92578,34462
92507,34391
92469,34299
92469,34066
92532,34003
92966,34003
93066,34003
93500,34003
93562,34066
97568,34066
97568,33607
93562,33607
93562,33841
93500,33903
93066,33903
93066,33469
92966,33469
92966,33903
92532,33903
92469,33841
92469,33607
92507,33515
92578,33445
92670,33407
92903,33407
92966,33469
93066,33469
93128,33407
93362,33407
93454,33445
93524,33515
93562,33607
97568,33607
97568,32643
97218,32643
97076,32988
96813,33251
96469,33394
96097,33394
95752,33252
95489,32989
95346,32645
95346,32273
95488,31929
95751,31665
96095,31522
96467,31522
96811,31664
97075,31927
97218,32271
97218,32643
97568,32643
97568,31310
94838,31310
94838,33201
73726,33201
73726,32643
53718,32643
53576,32988
53313,33251
52969,33394
52597,33394
52252,33252
51989,32989
51846,32645
51846,32273
51988,31929
52251,31665
52595,31522
52967,31522
53311,31664
53575,31927
53718,32271
53718,32643
73726,32643
73726,31310
94838,31310
97568,31310
97568,31172
51251,31172
51251,61741
" /> 
<polyline style="fill-rule:evenodd;"
points="75822,48075
75788,48248
75690,48395
75543,48493
75472,48507
75557,48507
75620,48570
75620,48625
75582,48717
75511,48787
75420,48825
75246,48825
75184,48763
75184,48528
75084,48528
75084,48763
75043,48804
76193,49954
76461,50065
76675,50278
76676,50282
76706,50311
76735,50214
76947,50138
77171,50149
77329,50214
77358,50311
77032,50637
77026,50632
76956,50703
76961,50708
76956,50714
77026,50784
77032,50779
77358,51105
77329,51202
77117,51278
76893,51267
76735,51202
76706,51105
76677,51134
76675,51137
76594,51219
76594,51458
76587,51493
76551,51673
76429,51855
75594,52691
75594,59225
76265,59896
78537,59896
78501,59809
78501,59576
78564,59513
78998,59513
78998,59521
79098,59521
79098,59513
79532,59513
79594,59576
79594,59809
79558,59896
80294,59896
80267,59760
80267,59167
80277,59117
79594,59117
79594,59351
79532,59413
79098,59413
79098,58979
78998,58979
78998,59413
78564,59413
78501,59351
78501,59117
78539,59025
78610,58955
78702,58917
78935,58917
78998,58979
79098,58979
79160,58917
79394,58917
79486,58955
79556,59025
79594,59117
80277,59117
80301,58994
80399,58847
80546,58749
80719,58714
81312,58714
81485,58749
81632,58847
81669,58901
83044,58901
83720,58225
83720,57591
83195,57591
83133,57529
83133,56758
83033,56758
83033,57529
82970,57591
82400,57591
82308,57553
82238,57483
82200,57391
82200,56821
77894,56821
77894,57391
77856,57483
77785,57553
77694,57591
77123,57591
77061,57529
77061,56758
76961,56758
76961,57529
76898,57591
76328,57591
76236,57553
76166,57483
76128,57391
76128,56821
76190,56758
76961,56758
77061,56758
77831,56758
77894,56821
82200,56821
82262,56758
83033,56758
83133,56758
83141,56758
83141,56658
83133,56658
83133,55888
83033,55888
83033,56658
82262,56658
82200,56596
82200,56025
77894,56025
77894,56596
77831,56658
77061,56658
77061,55888
76961,55888
76961,56658
76190,56658
76128,56596
76128,56025
76166,55934
76236,55863
76328,55825
76898,55825
76961,55888
77061,55888
77123,55825
77694,55825
77785,55863
77856,55934
77894,56025
82200,56025
82238,55934
82308,55863
82400,55825
82970,55825
83033,55888
83133,55888
83195,55825
83720,55825
83720,52941
83254,52475
82765,52475
82765,53068
82730,53241
82632,53388
82485,53486
82312,53520
81719,53520
81546,53486
81399,53388
81301,53241
81267,53068
81267,52884
80578,52884
80578,53117
80540,53209
80470,53280
80378,53318
80144,53318
80082,53255
80082,52821
79982,52821
79982,53255
79919,53318
79686,53318
79594,53280
79523,53209
79485,53117
79485,52884
79548,52821
79982,52821
80082,52821
80516,52821
80578,52884
81267,52884
81267,52475
81277,52425
80578,52425
80578,52659
80516,52721
80082,52721
80082,52287
79982,52287
79982,52721
79548,52721
79485,52659
79485,52475
78797,52475
78797,53068
78762,53241
78664,53388
78517,53486
78344,53520
77751,53520
77578,53486
77431,53388
77333,53241
77299,53068
77299,52475
77333,52302
77431,52155
77578,52057
77751,52022
78344,52022
78517,52057
78664,52155
78762,52302
78797,52475
79485,52475
79485,52425
79523,52333
79594,52263
79686,52225
79919,52225
79982,52287
80082,52287
80144,52225
80378,52225
80470,52263
80540,52333
80578,52425
81277,52425
81301,52302
81399,52155
81546,52057
81719,52022
82312,52022
82485,52057
82632,52155
82730,52302
82765,52475
83254,52475
82885,52105
82763,51923
82749,51855
82720,51708
82720,50623
77602,50623
77591,50847
77526,51005
77429,51034
77103,50708
77429,50382
77526,50411
77602,50623
82720,50623
82720,48191
82548,48019
75822,48019
75822,48075
" /> 
<polyline style="fill-rule:evenodd;"
points="73616,44253
73605,44308
73605,44441
73542,44503
73530,44503
73509,44534
73509,44555
73584,44667
73618,44840
73618,45076
73584,45249
73486,45396
73393,45458
73486,45520
73584,45667
73618,45840
73618,46076
73592,46208
73618,46340
73618,46576
73592,46708
73618,46839
73618,47075
73592,47207
73618,47339
73618,47439
73799,47560
74478,48239
74445,48075
74445,47839
74472,47707
74445,47575
74445,47339
74472,47207
74445,47075
74445,46839
74472,46708
74445,46576
74445,46340
74472,46208
74445,46076
74445,45976
74264,45855
74135,45726
74013,45543
74005,45505
73970,45328
73970,44499
73960,44503
73767,44503
73705,44441
73705,44008
73713,44008
73713,43908
73705,43908
73705,43900
73616,43900
73616,44253
" /> 
<polyline style="fill-rule:evenodd;"
points="61858,43311
61532,43637
61526,43632
61456,43703
61461,43708
61456,43714
61526,43784
61532,43779
61858,44105
61829,44202
61617,44278
61393,44267
61235,44202
61206,44105
61177,44134
61175,44137
60962,44351
60683,44467
60382,44467
60103,44352
60094,44343
60094,44725
60265,44896
63549,44896
63720,44725
63720,43708
63737,43623
62102,43623
62091,43847
62026,44005
61929,44034
61603,43708
61929,43382
62026,43411
62102,43623
63737,43623
63763,43493
63763,43493
63885,43311
63926,43270
61845,43270
61858,43311
" /> 
</g>
<g style="fill:#000000; fill-opacity:1.0; 
stroke:#000000; stroke-width:100; stroke-opacity:1; 
stroke-linecap:round; stroke-linejoin:round;">
</g>
<g style="fill:#000000; fill-opacity:1.0; 
stroke:#000000; stroke-width:0; stroke-opacity:1; 
stroke-linecap:round; stroke-linejoin:round;">
<circle cx="71532.4" cy="43958.7" r="157.48" /> 
</g>
<g style="fill:#000000; fill-opacity:1.0; 
stroke:#000000; stroke-width:39.3701; stroke-opacity:1; 
stroke-linecap:round; stroke-linejoin:round;">
</g>
<g style="fill:#000000; fill-opacity:1.0; 
stroke:#000000; stroke-width:0; stroke-opacity:1; 
stroke-linecap:round; stroke-linejoin:round;">
<circle cx="82282.4" cy="45458.7" r="157.48" /> 
</g>
<g style="fill:#000000; fill-opacity:1.0; 
stroke:#000000; stroke-width:39.3701; stroke-opacity:1; 
stroke-linecap:round; stroke-linejoin:round;">
</g>
<g style="fill:#000000; fill-opacity:1.0; 
stroke:#000000; stroke-width:0; stroke-opacity:1; 
stroke-linecap:round; stroke-linejoin:round;">
<circle cx="83032.4" cy="44958.7" r="157.48" /> 
</g>
<g style="fill:#000000; fill-opacity:1.0; 
stroke:#000000; stroke-width:39.3701; stroke-opacity:1; 
stroke-linecap:round; stroke-linejoin:round;">
</g>
<g style="fill:#000000; fill-opacity:1.0; 
stroke:#000000; stroke-width:0; stroke-opacity:1; 
stroke-linecap:round; stroke-linejoin:round;">
<circle cx="96032.4" cy="46208.7" r="180" /> 
</g>
<g style="fill:#000000; fill-opacity:1.0; 
stroke:#000000; stroke-width:39.3701; stroke-opacity:1; 
stroke-linecap:round; stroke-linejoin:round;">
</g>
<g style="fill:#000000; fill-opacity:1.0; 
stroke:#000000; stroke-width:0; stroke-opacity:1; 
stroke-linecap:round; stroke-linejoin:round;">
<circle cx="96032.4" cy="45208.7" r="180" /> 
</g>
<g style="fill:#000000; fill-opacity:1.0; 
stroke:#000000; stroke-width:39.3701; stroke-opacity:1; 
stroke-linecap:round; stroke-linejoin:round;">
</g>
<g style="fill:#000000; fill-opacity:1.0; 
stroke:#000000; stroke-width:0; stroke-opacity:1; 
stroke-linecap:round; stroke-linejoin:round;">
<circle cx="52782.4" cy="45208.7" r="180" /> 
</g>
<g style="fill:#000000; fill-opacity:1.0; 
stroke:#000000; stroke-width:39.3701; stroke-opacity:1; 
stroke-linecap:round; stroke-linejoin:round;">
</g>
<g style="fill:#000000; fill-opacity:1.0; 
stroke:#000000; stroke-width:0; stroke-opacity:1; 
stroke-linecap:round; stroke-linejoin:round;">
<circle cx="52981.4" cy="36708.7" r="433" /> 
</g>
<g style="fill:#000000; fill-opacity:1.0; 
stroke:#000000; stroke-width:39.3701; stroke-opacity:1; 
stroke-linecap:round; stroke-linejoin:round;">
</g>
<g style="fill:#000000; fill-opacity:1.0; 
stroke:#000000; stroke-width:0; stroke-opacity:1; 
stroke-linecap:round; stroke-linejoin:round;">
<circle cx="59053.4" cy="36708.7" r="433" /> 
</g>
<g style="fill:#000000; fill-opacity:1.0; 
stroke:#000000; stroke-width:39.3701; stroke-opacity:1; 
stroke-linecap:round; stroke-linejoin:round;">
</g>
<g style="fill:#000000; fill-opacity:1.0; 
stroke:#000000; stroke-width:0; stroke-opacity:1; 
stroke-linecap:round; stroke-linejoin:round;">
<circle cx="55048.4" cy="33953.7" r="196.5" /> 
</g>
<g style="fill:#000000; fill-opacity:1.0; 
stroke:#000000; stroke-width:39.3701; stroke-opacity:1; 
stroke-linecap:round; stroke-linejoin:round;">
</g>
<g style="fill:#000000; fill-opacity:1.0; 
stroke:#000000; stroke-width:0; stroke-opacity:1; 
stroke-linecap:round; stroke-linejoin:round;">
<circle cx="57016.4" cy="33953.7" r="196.5" /> 
</g>
<g style="fill:#000000; fill-opacity:1.0; 
stroke:#000000; stroke-width:39.3701; stroke-opacity:1; 
stroke-linecap:round; stroke-linejoin:round;">
</g>
<g style="fill:#000000; fill-opacity:1.0; 
stroke:#000000; stroke-width:0; stroke-opacity:1; 
stroke-linecap:round; stroke-linejoin:round;">
<circle cx="56032.4" cy="40645.7" r="196.5" /> 
</g>
<g style="fill:#000000; fill-opacity:1.0; 
stroke:#000000; stroke-width:39.3701; stroke-opacity:1; 
stroke-linecap:round; stroke-linejoin:round;">
</g>
<g style="fill:#000000; fill-opacity:1.0; 
stroke:#000000; stroke-width:0; stroke-opacity:1; 
stroke-linecap:round; stroke-linejoin:round;">
<circle cx="54048.4" cy="40645.7" r="196.5" /> 
</g>
<g style="fill:#000000; fill-opacity:1.0; 
stroke:#000000; stroke-width:39.3701; stroke-opacity:1; 
stroke-linecap:round; stroke-linejoin:round;">
</g>
<g style="fill:#000000; fill-opacity:1.0; 
stroke:#000000; stroke-width:0; stroke-opacity:1; 
stroke-linecap:round; stroke-linejoin:round;">
<circle cx="58016.4" cy="40645.7" r="196.5" /> 
</g>
<g style="fill:#000000; fill-opacity:1.0; 
stroke:#000000; stroke-width:39.3701; stroke-opacity:1; 
stroke-linecap:round; stroke-linejoin:round;">
</g>
<g style="fill:#000000; fill-opacity:1.0; 
stroke:#000000; stroke-width:0; stroke-opacity:1; 
stroke-linecap:round; stroke-linejoin:round;">
<circle cx="76981.4" cy="36708.7" r="433" /> 
</g>
<g style="fill:#000000; fill-opacity:1.0; 
stroke:#000000; stroke-width:39.3701; stroke-opacity:1; 
stroke-linecap:round; stroke-linejoin:round;">
</g>
<g style="fill:#000000; fill-opacity:1.0; 
stroke:#000000; stroke-width:0; stroke-opacity:1; 
stroke-linecap:round; stroke-linejoin:round;">
<circle cx="83053.4" cy="36708.7" r="433" /> 
</g>
<g style="fill:#000000; fill-opacity:1.0; 
stroke:#000000; stroke-width:39.3701; stroke-opacity:1; 
stroke-linecap:round; stroke-linejoin:round;">
</g>
<g style="fill:#000000; fill-opacity:1.0; 
stroke:#000000; stroke-width:0; stroke-opacity:1; 
stroke-linecap:round; stroke-linejoin:round;">
<circle cx="79048.4" cy="33953.7" r="196.5" /> 
</g>
<g style="fill:#000000; fill-opacity:1.0; 
stroke:#000000; stroke-width:39.3701; stroke-opacity:1; 
stroke-linecap:round; stroke-linejoin:round;">
</g>
<g style="fill:#000000; fill-opacity:1.0; 
stroke:#000000; stroke-width:0; stroke-opacity:1; 
stroke-linecap:round; stroke-linejoin:round;">
<circle cx="81016.4" cy="33953.7" r="196.5" /> 
</g>
<g style="fill:#000000; fill-opacity:1.0; 
stroke:#000000; stroke-width:39.3701; stroke-opacity:1; 
stroke-linecap:round; stroke-linejoin:round;">
</g>
<g style="fill:#000000; fill-opacity:1.0; 
stroke:#000000; stroke-width:0; stroke-opacity:1; 
stroke-linecap:round; stroke-linejoin:round;">
<circle cx="80032.4" cy="40645.7" r="196.5" /> 
</g>
<g style="fill:#000000; fill-opacity:1.0; 
stroke:#000000; stroke-width:39.3701; stroke-opacity:1; 
stroke-linecap:round; stroke-linejoin:round;">
</g>
<g style="fill:#000000; fill-opacity:1.0; 
stroke:#000000; stroke-width:0; stroke-opacity:1; 
stroke-linecap:round; stroke-linejoin:round;">
<circle cx="78048.4" cy="40645.7" r="196.5" /> 
</g>
<g style="fill:#000000; fill-opacity:1.0; 
stroke:#000000; stroke-width:39.3701; stroke-opacity:1; 
stroke-linecap:round; stroke-linejoin:round;">
</g>
<g style="fill:#000000; fill-opacity:1.0; 
stroke:#000000; stroke-width:0; stroke-opacity:1; 
stroke-linecap:round; stroke-linejoin:round;">
<circle cx="82016.4" cy="40645.7" r="196.5" /> 
</g>
<g style="fill:#000000; fill-opacity:1.0; 
stroke:#000000; stroke-width:39.3701; stroke-opacity:1; 
stroke-linecap:round; stroke-linejoin:round;">
</g>
<g style="fill:#000000; fill-opacity:1.0; 
stroke:#000000; stroke-width:0; stroke-opacity:1; 
stroke-linecap:round; stroke-linejoin:round;">
<circle cx="83083.4" cy="56708.7" r="433" /> 
</g>
<g style="fill:#000000; fill-opacity:1.0; 
stroke:#000000; stroke-width:39.3701; stroke-opacity:1; 
stroke-linecap:round; stroke-linejoin:round;">
</g>
<g style="fill:#000000; fill-opacity:1.0; 
stroke:#000000; stroke-width:0; stroke-opacity:1; 
stroke-linecap:round; stroke-linejoin:round;">
<circle cx="77011.4" cy="56708.7" r="433" /> 
</g>
<g style="fill:#000000; fill-opacity:1.0; 
stroke:#000000; stroke-width:39.3701; stroke-opacity:1; 
stroke-linecap:round; stroke-linejoin:round;">
</g>
<g style="fill:#000000; fill-opacity:1.0; 
stroke:#000000; stroke-width:0; stroke-opacity:1; 
stroke-linecap:round; stroke-linejoin:round;">
<circle cx="81016.4" cy="59463.7" r="196.5" /> 
</g>
<g style="fill:#000000; fill-opacity:1.0; 
stroke:#000000; stroke-width:39.3701; stroke-opacity:1; 
stroke-linecap:round; stroke-linejoin:round;">
</g>
<g style="fill:#000000; fill-opacity:1.0; 
stroke:#000000; stroke-width:0; stroke-opacity:1; 
stroke-linecap:round; stroke-linejoin:round;">
<circle cx="79048.4" cy="59463.7" r="196.5" /> 
</g>
<g style="fill:#000000; fill-opacity:1.0; 
stroke:#000000; stroke-width:39.3701; stroke-opacity:1; 
stroke-linecap:round; stroke-linejoin:round;">
</g>
<g style="fill:#000000; fill-opacity:1.0; 
stroke:#000000; stroke-width:0; stroke-opacity:1; 
stroke-linecap:round; stroke-linejoin:round;">
<circle cx="80032.4" cy="52771.7" r="196.5" /> 
</g>
<g style="fill:#000000; fill-opacity:1.0; 
stroke:#000000; stroke-width:39.3701; stroke-opacity:1; 
stroke-linecap:round; stroke-linejoin:round;">
</g>
<g style="fill:#000000; fill-opacity:1.0; 
stroke:#000000; stroke-width:0; stroke-opacity:1; 
stroke-linecap:round; stroke-linejoin:round;">
<circle cx="82016.4" cy="52771.7" r="196.5" /> 
</g>
<g style="fill:#000000; fill-opacity:1.0; 
stroke:#000000; stroke-width:39.3701; stroke-opacity:1; 
stroke-linecap:round; stroke-linejoin:round;">
</g>
<g style="fill:#000000; fill-opacity:1.0; 
stroke:#000000; stroke-width:0; stroke-opacity:1; 
stroke-linecap:round; stroke-linejoin:round;">
<circle cx="78048.4" cy="52771.7" r="196.5" /> 
</g>
<g style="fill:#000000; fill-opacity:1.0; 
stroke:#000000; stroke-width:39.3701; stroke-opacity:1; 
stroke-linecap:round; stroke-linejoin:round;">
</g>
<g style="fill:#000000; fill-opacity:1.0; 
stroke:#000000; stroke-width:0; stroke-opacity:1; 
stroke-linecap:round; stroke-linejoin:round;">
<circle cx="52782.4" cy="46208.7" r="180" /> 
</g>
<g style="fill:#000000; fill-opacity:1.0; 
stroke:#000000; stroke-width:39.3701; stroke-opacity:1; 
stroke-linecap:round; stroke-linejoin:round;">
</g>
<g style="fill:#000000; fill-opacity:1.0; 
stroke:#000000; stroke-width:0; stroke-opacity:1; 
stroke-linecap:round; stroke-linejoin:round;">
<circle cx="59532.4" cy="43708.7" r="180" /> 
</g>
<g style="fill:#000000; fill-opacity:1.0; 
stroke:#000000; stroke-width:39.3701; stroke-opacity:1; 
stroke-linecap:round; stroke-linejoin:round;">
</g>
<g style="fill:#000000; fill-opacity:1.0; 
stroke:#000000; stroke-width:0; stroke-opacity:1; 
stroke-linecap:round; stroke-linejoin:round;">
<circle cx="86032.4" cy="50708.7" r="180" /> 
</g>
<g style="fill:#000000; fill-opacity:1.0; 
stroke:#000000; stroke-width:39.3701; stroke-opacity:1; 
stroke-linecap:round; stroke-linejoin:round;">
</g>
<g style="fill:#000000; fill-opacity:1.0; 
stroke:#000000; stroke-width:0; stroke-opacity:1; 
stroke-linecap:round; stroke-linejoin:round;">
<circle cx="77032.4" cy="50708.7" r="180" /> 
</g>
<g style="fill:#000000; fill-opacity:1.0; 
stroke:#000000; stroke-width:39.3701; stroke-opacity:1; 
stroke-linecap:round; stroke-linejoin:round;">
</g>
<g style="fill:#000000; fill-opacity:1.0; 
stroke:#000000; stroke-width:0; stroke-opacity:1; 
stroke-linecap:round; stroke-linejoin:round;">
<circle cx="62032.4" cy="50708.7" r="180" /> 
</g>
<g style="fill:#000000; fill-opacity:1.0; 
stroke:#000000; stroke-width:39.3701; stroke-opacity:1; 
stroke-linecap:round; stroke-linejoin:round;">
</g>
<g style="fill:#000000; fill-opacity:1.0; 
stroke:#000000; stroke-width:0; stroke-opacity:1; 
stroke-linecap:round; stroke-linejoin:round;">
<circle cx="61532.4" cy="43708.7" r="180" /> 
</g>
<g style="fill:#000000; fill-opacity:1.0; 
stroke:#000000; stroke-width:39.3701; stroke-opacity:1; 
stroke-linecap:round; stroke-linejoin:round;">
</g>
<g style="fill:#000000; fill-opacity:1.0; 
stroke:#000000; stroke-width:0; stroke-opacity:1; 
stroke-linecap:round; stroke-linejoin:round;">
<circle cx="88032.4" cy="50708.7" r="180" /> 
</g>
<g style="fill:#000000; fill-opacity:1.0; 
stroke:#000000; stroke-width:39.3701; stroke-opacity:1; 
stroke-linecap:round; stroke-linejoin:round;">
</g>
<g style="fill:#000000; fill-opacity:1.0; 
stroke:#000000; stroke-width:0; stroke-opacity:1; 
stroke-linecap:round; stroke-linejoin:round;">
<circle cx="76032.4" cy="50708.7" r="180" /> 
</g>
<g style="fill:#000000; fill-opacity:1.0; 
stroke:#000000; stroke-width:39.3701; stroke-opacity:1; 
stroke-linecap:round; stroke-linejoin:round;">
</g>
<g style="fill:#000000; fill-opacity:1.0; 
stroke:#000000; stroke-width:0; stroke-opacity:1; 
stroke-linecap:round; stroke-linejoin:round;">
<circle cx="64032.4" cy="50708.7" r="180" /> 
</g>
<g style="fill:#000000; fill-opacity:1.0; 
stroke:#000000; stroke-width:39.3701; stroke-opacity:1; 
stroke-linecap:round; stroke-linejoin:round;">
</g>
<g style="fill:#000000; fill-opacity:1.0; 
stroke:#000000; stroke-width:0; stroke-opacity:1; 
stroke-linecap:round; stroke-linejoin:round;">
<circle cx="60532.4" cy="43708.7" r="180" /> 
</g>
<g style="fill:#000000; fill-opacity:1.0; 
stroke:#000000; stroke-width:39.3701; stroke-opacity:1; 
stroke-linecap:round; stroke-linejoin:round;">
</g>
<g style="fill:#000000; fill-opacity:1.0; 
stroke:#000000; stroke-width:0; stroke-opacity:1; 
stroke-linecap:round; stroke-linejoin:round;">
<circle cx="87032.4" cy="50708.7" r="180" /> 
</g>
<g style="fill:#000000; fill-opacity:1.0; 
stroke:#000000; stroke-width:39.3701; stroke-opacity:1; 
stroke-linecap:round; stroke-linejoin:round;">
</g>
<g style="fill:#000000; fill-opacity:1.0; 
stroke:#000000; stroke-width:0; stroke-opacity:1; 
stroke-linecap:round; stroke-linejoin:round;">
<circle cx="75032.4" cy="50708.7" r="180" /> 
</g>
<g style="fill:#000000; fill-opacity:1.0; 
stroke:#000000; stroke-width:39.3701; stroke-opacity:1; 
stroke-linecap:round; stroke-linejoin:round;">
</g>
<g style="fill:#000000; fill-opacity:1.0; 
stroke:#000000; stroke-width:0; stroke-opacity:1; 
stroke-linecap:round; stroke-linejoin:round;">
<circle cx="63032.4" cy="50708.7" r="180" /> 
</g>
<g style="fill:#000000; fill-opacity:1.0; 
stroke:#000000; stroke-width:39.3701; stroke-opacity:1; 
stroke-linecap:round; stroke-linejoin:round;">
</g>
<g style="fill:#000000; fill-opacity:1.0; 
stroke:#000000; stroke-width:0; stroke-opacity:1; 
stroke-linecap:round; stroke-linejoin:round;">
<circle cx="59083.4" cy="56708.7" r="433" /> 
</g>
<g style="fill:#000000; fill-opacity:1.0; 
stroke:#000000; stroke-width:39.3701; stroke-opacity:1; 
stroke-linecap:round; stroke-linejoin:round;">
</g>
<g style="fill:#000000; fill-opacity:1.0; 
stroke:#000000; stroke-width:0; stroke-opacity:1; 
stroke-linecap:round; stroke-linejoin:round;">
<circle cx="53011.4" cy="56708.7" r="433" /> 
</g>
<g style="fill:#000000; fill-opacity:1.0; 
stroke:#000000; stroke-width:39.3701; stroke-opacity:1; 
stroke-linecap:round; stroke-linejoin:round;">
</g>
<g style="fill:#000000; fill-opacity:1.0; 
stroke:#000000; stroke-width:0; stroke-opacity:1; 
stroke-linecap:round; stroke-linejoin:round;">
<circle cx="57016.4" cy="59463.7" r="196.5" /> 
</g>
<g style="fill:#000000; fill-opacity:1.0; 
stroke:#000000; stroke-width:39.3701; stroke-opacity:1; 
stroke-linecap:round; stroke-linejoin:round;">
</g>
<g style="fill:#000000; fill-opacity:1.0; 
stroke:#000000; stroke-width:0; stroke-opacity:1; 
stroke-linecap:round; stroke-linejoin:round;">
<circle cx="55048.4" cy="59463.7" r="196.5" /> 
</g>
<g style="fill:#000000; fill-opacity:1.0; 
stroke:#000000; stroke-width:39.3701; stroke-opacity:1; 
stroke-linecap:round; stroke-linejoin:round;">
</g>
<g style="fill:#000000; fill-opacity:1.0; 
stroke:#000000; stroke-width:0; stroke-opacity:1; 
stroke-linecap:round; stroke-linejoin:round;">
<circle cx="56032.4" cy="52771.7" r="196.5" /> 
</g>
<g style="fill:#000000; fill-opacity:1.0; 
stroke:#000000; stroke-width:39.3701; stroke-opacity:1; 
stroke-linecap:round; stroke-linejoin:round;">
</g>
<g style="fill:#000000; fill-opacity:1.0; 
stroke:#000000; stroke-width:0; stroke-opacity:1; 
stroke-linecap:round; stroke-linejoin:round;">
<circle cx="58016.4" cy="52771.7" r="196.5" /> 
</g>
<g style="fill:#000000; fill-opacity:1.0; 
stroke:#000000; stroke-width:39.3701; stroke-opacity:1; 
stroke-linecap:round; stroke-linejoin:round;">
</g>
<g style="fill:#000000; fill-opacity:1.0; 
stroke:#000000; stroke-width:0; stroke-opacity:1; 
stroke-linecap:round; stroke-linejoin:round;">
<circle cx="54048.4" cy="52771.7" r="196.5" /> 
</g>
<g style="fill:#000000; fill-opacity:1.0; 
stroke:#000000; stroke-width:39.3701; stroke-opacity:1; 
stroke-linecap:round; stroke-linejoin:round;">
</g>
<g style="fill:#000000; fill-opacity:1.0; 
stroke:#000000; stroke-width:0; stroke-opacity:1; 
stroke-linecap:round; stroke-linejoin:round;">
<circle cx="66048.4" cy="52771.7" r="196.5" /> 
</g>
<g style="fill:#000000; fill-opacity:1.0; 
stroke:#000000; stroke-width:39.3701; stroke-opacity:1; 
stroke-linecap:round; stroke-linejoin:round;">
</g>
<g style="fill:#000000; fill-opacity:1.0; 
stroke:#000000; stroke-width:0; stroke-opacity:1; 
stroke-linecap:round; stroke-linejoin:round;">
<circle cx="70016.4" cy="52771.7" r="196.5" /> 
</g>
<g style="fill:#000000; fill-opacity:1.0; 
stroke:#000000; stroke-width:39.3701; stroke-opacity:1; 
stroke-linecap:round; stroke-linejoin:round;">
</g>
<g style="fill:#000000; fill-opacity:1.0; 
stroke:#000000; stroke-width:0; stroke-opacity:1; 
stroke-linecap:round; stroke-linejoin:round;">
<circle cx="68032.4" cy="52771.7" r="196.5" /> 
</g>
<g style="fill:#000000; fill-opacity:1.0; 
stroke:#000000; stroke-width:39.3701; stroke-opacity:1; 
stroke-linecap:round; stroke-linejoin:round;">
</g>
<g style="fill:#000000; fill-opacity:1.0; 
stroke:#000000; stroke-width:0; stroke-opacity:1; 
stroke-linecap:round; stroke-linejoin:round;">
<circle cx="67048.4" cy="59463.7" r="196.5" /> 
</g>
<g style="fill:#000000; fill-opacity:1.0; 
stroke:#000000; stroke-width:39.3701; stroke-opacity:1; 
stroke-linecap:round; stroke-linejoin:round;">
</g>
<g style="fill:#000000; fill-opacity:1.0; 
stroke:#000000; stroke-width:0; stroke-opacity:1; 
stroke-linecap:round; stroke-linejoin:round;">
<circle cx="69016.4" cy="59463.7" r="196.5" /> 
</g>
<g style="fill:#000000; fill-opacity:1.0; 
stroke:#000000; stroke-width:39.3701; stroke-opacity:1; 
stroke-linecap:round; stroke-linejoin:round;">
</g>
<g style="fill:#000000; fill-opacity:1.0; 
stroke:#000000; stroke-width:0; stroke-opacity:1; 
stroke-linecap:round; stroke-linejoin:round;">
<circle cx="65011.4" cy="56708.7" r="433" /> 
</g>
<g style="fill:#000000; fill-opacity:1.0; 
stroke:#000000; stroke-width:39.3701; stroke-opacity:1; 
stroke-linecap:round; stroke-linejoin:round;">
</g>
<g style="fill:#000000; fill-opacity:1.0; 
stroke:#000000; stroke-width:0; stroke-opacity:1; 
stroke-linecap:round; stroke-linejoin:round;">
<circle cx="71083.4" cy="56708.7" r="433" /> 
</g>
<g style="fill:#000000; fill-opacity:1.0; 
stroke:#000000; stroke-width:39.3701; stroke-opacity:1; 
stroke-linecap:round; stroke-linejoin:round;">
</g>
<g style="fill:#000000; fill-opacity:1.0; 
stroke:#000000; stroke-width:0; stroke-opacity:1; 
stroke-linecap:round; stroke-linejoin:round;">
<circle cx="90048.4" cy="52771.7" r="196.5" /> 
</g>
<g style="fill:#000000; fill-opacity:1.0; 
stroke:#000000; stroke-width:39.3701; stroke-opacity:1; 
stroke-linecap:round; stroke-linejoin:round;">
</g>
<g style="fill:#000000; fill-opacity:1.0; 
stroke:#000000; stroke-width:0; stroke-opacity:1; 
stroke-linecap:round; stroke-linejoin:round;">
<circle cx="94016.4" cy="52771.7" r="196.5" /> 
</g>
<g style="fill:#000000; fill-opacity:1.0; 
stroke:#000000; stroke-width:39.3701; stroke-opacity:1; 
stroke-linecap:round; stroke-linejoin:round;">
</g>
<g style="fill:#000000; fill-opacity:1.0; 
stroke:#000000; stroke-width:0; stroke-opacity:1; 
stroke-linecap:round; stroke-linejoin:round;">
<circle cx="92032.4" cy="52771.7" r="196.5" /> 
</g>
<g style="fill:#000000; fill-opacity:1.0; 
stroke:#000000; stroke-width:39.3701; stroke-opacity:1; 
stroke-linecap:round; stroke-linejoin:round;">
</g>
<g style="fill:#000000; fill-opacity:1.0; 
stroke:#000000; stroke-width:0; stroke-opacity:1; 
stroke-linecap:round; stroke-linejoin:round;">
<circle cx="91048.4" cy="59463.7" r="196.5" /> 
</g>
<g style="fill:#000000; fill-opacity:1.0; 
stroke:#000000; stroke-width:39.3701; stroke-opacity:1; 
stroke-linecap:round; stroke-linejoin:round;">
</g>
<g style="fill:#000000; fill-opacity:1.0; 
stroke:#000000; stroke-width:0; stroke-opacity:1; 
stroke-linecap:round; stroke-linejoin:round;">
<circle cx="93016.4" cy="59463.7" r="196.5" /> 
</g>
<g style="fill:#000000; fill-opacity:1.0; 
stroke:#000000; stroke-width:39.3701; stroke-opacity:1; 
stroke-linecap:round; stroke-linejoin:round;">
</g>
<g style="fill:#000000; fill-opacity:1.0; 
stroke:#000000; stroke-width:0; stroke-opacity:1; 
stroke-linecap:round; stroke-linejoin:round;">
<circle cx="89011.4" cy="56708.7" r="433" /> 
</g>
<g style="fill:#000000; fill-opacity:1.0; 
stroke:#000000; stroke-width:39.3701; stroke-opacity:1; 
stroke-linecap:round; stroke-linejoin:round;">
</g>
<g style="fill:#000000; fill-opacity:1.0; 
stroke:#000000; stroke-width:0; stroke-opacity:1; 
stroke-linecap:round; stroke-linejoin:round;">
<circle cx="95083.4" cy="56708.7" r="433" /> 
</g>
<g style="fill:#000000; fill-opacity:1.0; 
stroke:#000000; stroke-width:39.3701; stroke-opacity:1; 
stroke-linecap:round; stroke-linejoin:round;">
</g>
<g style="fill:#000000; fill-opacity:1.0; 
stroke:#000000; stroke-width:0; stroke-opacity:1; 
stroke-linecap:round; stroke-linejoin:round;">
<circle cx="70016.4" cy="40645.7" r="196.5" /> 
</g>
<g style="fill:#000000; fill-opacity:1.0; 
stroke:#000000; stroke-width:39.3701; stroke-opacity:1; 
stroke-linecap:round; stroke-linejoin:round;">
</g>
<g style="fill:#000000; fill-opacity:1.0; 
stroke:#000000; stroke-width:0; stroke-opacity:1; 
stroke-linecap:round; stroke-linejoin:round;">
<circle cx="66048.4" cy="40645.7" r="196.5" /> 
</g>
<g style="fill:#000000; fill-opacity:1.0; 
stroke:#000000; stroke-width:39.3701; stroke-opacity:1; 
stroke-linecap:round; stroke-linejoin:round;">
</g>
<g style="fill:#000000; fill-opacity:1.0; 
stroke:#000000; stroke-width:0; stroke-opacity:1; 
stroke-linecap:round; stroke-linejoin:round;">
<circle cx="68032.4" cy="40645.7" r="196.5" /> 
</g>
<g style="fill:#000000; fill-opacity:1.0; 
stroke:#000000; stroke-width:39.3701; stroke-opacity:1; 
stroke-linecap:round; stroke-linejoin:round;">
</g>
<g style="fill:#000000; fill-opacity:1.0; 
stroke:#000000; stroke-width:0; stroke-opacity:1; 
stroke-linecap:round; stroke-linejoin:round;">
<circle cx="69016.4" cy="33953.7" r="196.5" /> 
</g>
<g style="fill:#000000; fill-opacity:1.0; 
stroke:#000000; stroke-width:39.3701; stroke-opacity:1; 
stroke-linecap:round; stroke-linejoin:round;">
</g>
<g style="fill:#000000; fill-opacity:1.0; 
stroke:#000000; stroke-width:0; stroke-opacity:1; 
stroke-linecap:round; stroke-linejoin:round;">
<circle cx="67048.4" cy="33953.7" r="196.5" /> 
</g>
<g style="fill:#000000; fill-opacity:1.0; 
stroke:#000000; stroke-width:39.3701; stroke-opacity:1; 
stroke-linecap:round; stroke-linejoin:round;">
</g>
<g style="fill:#000000; fill-opacity:1.0; 
stroke:#000000; stroke-width:0; stroke-opacity:1; 
stroke-linecap:round; stroke-linejoin:round;">
<circle cx="71053.4" cy="36708.7" r="433" /> 
</g>
<g style="fill:#000000; fill-opacity:1.0; 
stroke:#000000; stroke-width:39.3701; stroke-opacity:1; 
stroke-linecap:round; stroke-linejoin:round;">
</g>
<g style="fill:#000000; fill-opacity:1.0; 
stroke:#000000; stroke-width:0; stroke-opacity:1; 
stroke-linecap:round; stroke-linejoin:round;">
<circle cx="64981.4" cy="36708.7" r="433" /> 
</g>
<g style="fill:#000000; fill-opacity:1.0; 
stroke:#000000; stroke-width:39.3701; stroke-opacity:1; 
stroke-linecap:round; stroke-linejoin:round;">
</g>
<g style="fill:#000000; fill-opacity:1.0; 
stroke:#000000; stroke-width:0; stroke-opacity:1; 
stroke-linecap:round; stroke-linejoin:round;">
<circle cx="94016.4" cy="40645.7" r="196.5" /> 
</g>
<g style="fill:#000000; fill-opacity:1.0; 
stroke:#000000; stroke-width:39.3701; stroke-opacity:1; 
stroke-linecap:round; stroke-linejoin:round;">
</g>
<g style="fill:#000000; fill-opacity:1.0; 
stroke:#000000; stroke-width:0; stroke-opacity:1; 
stroke-linecap:round; stroke-linejoin:round;">
<circle cx="90048.4" cy="40645.7" r="196.5" /> 
</g>
<g style="fill:#000000; fill-opacity:1.0; 
stroke:#000000; stroke-width:39.3701; stroke-opacity:1; 
stroke-linecap:round; stroke-linejoin:round;">
</g>
<g style="fill:#000000; fill-opacity:1.0; 
stroke:#000000; stroke-width:0; stroke-opacity:1; 
stroke-linecap:round; stroke-linejoin:round;">
<circle cx="92032.4" cy="40645.7" r="196.5" /> 
</g>
<g style="fill:#000000; fill-opacity:1.0; 
stroke:#000000; stroke-width:39.3701; stroke-opacity:1; 
stroke-linecap:round; stroke-linejoin:round;">
</g>
<g style="fill:#000000; fill-opacity:1.0; 
stroke:#000000; stroke-width:0; stroke-opacity:1; 
stroke-linecap:round; stroke-linejoin:round;">
<circle cx="93016.4" cy="33953.7" r="196.5" /> 
</g>
<g style="fill:#000000; fill-opacity:1.0; 
stroke:#000000; stroke-width:39.3701; stroke-opacity:1; 
stroke-linecap:round; stroke-linejoin:round;">
</g>
<g style="fill:#000000; fill-opacity:1.0; 
stroke:#000000; stroke-width:0; stroke-opacity:1; 
stroke-linecap:round; stroke-linejoin:round;">
<circle cx="91048.4" cy="33953.7" r="196.5" /> 
</g>
<g style="fill:#000000; fill-opacity:1.0; 
stroke:#000000; stroke-width:39.3701; stroke-opacity:1; 
stroke-linecap:round; stroke-linejoin:round;">
</g>
<g style="fill:#000000; fill-opacity:1.0; 
stroke:#000000; stroke-width:0; stroke-opacity:1; 
stroke-linecap:round; stroke-linejoin:round;">
<circle cx="95053.4" cy="36708.7" r="433" /> 
</g>
<g style="fill:#000000; fill-opacity:1.0; 
stroke:#000000; stroke-width:39.3701; stroke-opacity:1; 
stroke-linecap:round; stroke-linejoin:round;">
</g>
<g style="fill:#000000; fill-opacity:1.0; 
stroke:#000000; stroke-width:0; stroke-opacity:1; 
stroke-linecap:round; stroke-linejoin:round;">
<circle cx="88981.4" cy="36708.7" r="433" /> 
</g>
<g style="fill:#000000; fill-opacity:1.0; 
stroke:#000000; stroke-width:39.3701; stroke-opacity:1; 
stroke-linecap:round; stroke-linejoin:round;">
</g>
<g style="fill:#000000; fill-opacity:1.0; 
stroke:#000000; stroke-width:0; stroke-opacity:1; 
stroke-linecap:round; stroke-linejoin:round;">
<circle cx="96282.4" cy="32458.7" r="492.126" /> 
</g>
<g style="fill:#000000; fill-opacity:1.0; 
stroke:#000000; stroke-width:39.3701; stroke-opacity:1; 
stroke-linecap:round; stroke-linejoin:round;">
</g>
<g style="fill:#000000; fill-opacity:1.0; 
stroke:#000000; stroke-width:0; stroke-opacity:1; 
stroke-linecap:round; stroke-linejoin:round;">
<circle cx="52782.4" cy="32458.7" r="492.126" /> 
</g>
<g style="fill:#000000; fill-opacity:1.0; 
stroke:#000000; stroke-width:39.3701; stroke-opacity:1; 
stroke-linecap:round; stroke-linejoin:round;">
</g>
<g style="fill:#000000; fill-opacity:1.0; 
stroke:#000000; stroke-width:0; stroke-opacity:1; 
stroke-linecap:round; stroke-linejoin:round;">
<circle cx="74032.4" cy="40708.7" r="492.126" /> 
</g>
<g style="fill:#000000; fill-opacity:1.0; 
stroke:#000000; stroke-width:39.3701; stroke-opacity:1; 
stroke-linecap:round; stroke-linejoin:round;">
</g>
<g style="fill:#000000; fill-opacity:1.0; 
stroke:#000000; stroke-width:0; stroke-opacity:1; 
stroke-linecap:round; stroke-linejoin:round;">
<circle cx="96282.4" cy="60458.7" r="492.126" /> 
</g>
<g style="fill:#000000; fill-opacity:1.0; 
stroke:#000000; stroke-width:39.3701; stroke-opacity:1; 
stroke-linecap:round; stroke-linejoin:round;">
</g>
<g style="fill:#000000; fill-opacity:1.0; 
stroke:#000000; stroke-width:0; stroke-opacity:1; 
stroke-linecap:round; stroke-linejoin:round;">
<circle cx="73282.4" cy="52208.7" r="492.126" /> 
</g>
<g style="fill:#000000; fill-opacity:1.0; 
stroke:#000000; stroke-width:39.3701; stroke-opacity:1; 
stroke-linecap:round; stroke-linejoin:round;">
</g>
<g style="fill:#000000; fill-opacity:1.0; 
stroke:#000000; stroke-width:0; stroke-opacity:1; 
stroke-linecap:round; stroke-linejoin:round;">
<circle cx="52282.4" cy="60708.7" r="492.126" /> 
</g>
<g style="fill:#000000; fill-opacity:1.0; 
stroke:#000000; stroke-width:39.3701; stroke-opacity:1; 
stroke-linecap:round; stroke-linejoin:round;">
</g>
<g style="fill:#FFFFFF; fill-opacity:1.0; 
stroke:#FFFFFF; stroke-width:39.3701; stroke-opacity:1; 
stroke-linecap:round; stroke-linejoin:round;">
</g> 
</svg>
