<?xml version="1.0" standalone="no"?>
 <!DOCTYPE svg PUBLIC "-//W3C//DTD SVG 1.1//EN" 
 "http://www.w3.org/Graphics/SVG/1.1/DTD/svg11.dtd"> 
<svg xmlns="http://www.w3.org/2000/svg" version="1.1" 
    width="29.7002cm" height="21.0007cm" viewBox="0 0 116930 82680 ">
<title>SVG Picture created as rotary-encoders-F.Mask.svg date 2017/04/01 17:57:13 </title>
  <desc>Picture generated by PCBNEW </desc>
<g style="fill:#000000; fill-opacity:1;stroke:#000000; stroke-opacity:1;
stroke-linecap:round; stroke-linejoin:round; "
 transform="translate(0 0) scale(1 1)">
</g>
<g style="fill:#000000; fill-opacity:0.0; 
stroke:#000000; stroke-width:-0.000393701; stroke-opacity:1; 
stroke-linecap:round; stroke-linejoin:round;">
</g>
<g style="fill:#000000; fill-opacity:0.0; 
stroke:#000000; stroke-width:39.3701; stroke-opacity:1; 
stroke-linecap:round; stroke-linejoin:round;">
<circle cx="100532" cy="50708.7" r="656.168" /> 
<path d="M101516 50708
L99548 50708
" />
<path d="M100532 49724
L100532 51692
" />
<path d="M50788 62204
L98032 62204
" />
<path d="M50788 30708
L50788 62204
" />
<path d="M98032 30708
L50788 30708
" />
<path d="M98032 62204
L98032 30708
" />
</g>
<g style="fill:#000000; fill-opacity:1.0; 
stroke:#000000; stroke-width:0; stroke-opacity:1; 
stroke-linecap:round; stroke-linejoin:round;">
<circle cx="96032.4" cy="46208.7" r="315" /> 
</g>
<g style="fill:#000000; fill-opacity:1.0; 
stroke:#000000; stroke-width:39.3701; stroke-opacity:1; 
stroke-linecap:round; stroke-linejoin:round;">
</g>
<g style="fill:#000000; fill-opacity:1.0; 
stroke:#000000; stroke-width:0; stroke-opacity:1; 
stroke-linecap:round; stroke-linejoin:round;">
<circle cx="96032.4" cy="45208.7" r="315" /> 
</g>
<g style="fill:#000000; fill-opacity:1.0; 
stroke:#000000; stroke-width:39.3701; stroke-opacity:1; 
stroke-linecap:round; stroke-linejoin:round;">
</g>
<g style="fill:#000000; fill-opacity:1.0; 
stroke:#000000; stroke-width:0; stroke-opacity:1; 
stroke-linecap:round; stroke-linejoin:round;">
<circle cx="52782.4" cy="45208.7" r="315" /> 
</g>
<g style="fill:#000000; fill-opacity:1.0; 
stroke:#000000; stroke-width:39.3701; stroke-opacity:1; 
stroke-linecap:round; stroke-linejoin:round;">
</g>
<g style="fill:#000000; fill-opacity:1.0; 
stroke:#000000; stroke-width:0; stroke-opacity:1; 
stroke-linecap:round; stroke-linejoin:round;">
<polyline style="fill-rule:evenodd;"
points="53614,37341
53614,36075
52348,36075
52348,37341
53614,37341
" /> 
<polyline style="fill-rule:evenodd;"
points="59686,37341
59686,36075
58420,36075
58420,37341
59686,37341
" /> 
<polyline style="fill-rule:evenodd;"
points="55344,34250
55344,33657
54751,33657
54751,34250
55344,34250
" /> 
<polyline style="fill-rule:evenodd;"
points="57312,34250
57312,33657
56719,33657
56719,34250
57312,34250
" /> 
<polyline style="fill-rule:evenodd;"
points="56328,40942
56328,40349
55735,40349
55735,40942
56328,40942
" /> 
<polyline style="fill-rule:evenodd;"
points="54344,40942
54344,40349
53751,40349
53751,40942
54344,40942
" /> 
<polyline style="fill-rule:evenodd;"
points="58312,40942
58312,40349
57719,40349
57719,40942
58312,40942
" /> 
<polyline style="fill-rule:evenodd;"
points="77614,37341
77614,36075
76348,36075
76348,37341
77614,37341
" /> 
<polyline style="fill-rule:evenodd;"
points="83686,37341
83686,36075
82420,36075
82420,37341
83686,37341
" /> 
<polyline style="fill-rule:evenodd;"
points="79344,34250
79344,33657
78751,33657
78751,34250
79344,34250
" /> 
<polyline style="fill-rule:evenodd;"
points="81312,34250
81312,33657
80719,33657
80719,34250
81312,34250
" /> 
<polyline style="fill-rule:evenodd;"
points="80328,40942
80328,40349
79735,40349
79735,40942
80328,40942
" /> 
<polyline style="fill-rule:evenodd;"
points="78344,40942
78344,40349
77751,40349
77751,40942
78344,40942
" /> 
<polyline style="fill-rule:evenodd;"
points="82312,40942
82312,40349
81719,40349
81719,40942
82312,40942
" /> 
<polyline style="fill-rule:evenodd;"
points="82450,56075
82450,57341
83716,57341
83716,56075
82450,56075
" /> 
<polyline style="fill-rule:evenodd;"
points="76378,56075
76378,57341
77644,57341
77644,56075
76378,56075
" /> 
<polyline style="fill-rule:evenodd;"
points="80719,59167
80719,59760
81312,59760
81312,59167
80719,59167
" /> 
<polyline style="fill-rule:evenodd;"
points="78751,59167
78751,59760
79344,59760
79344,59167
78751,59167
" /> 
<polyline style="fill-rule:evenodd;"
points="79735,52475
79735,53068
80328,53068
80328,52475
79735,52475
" /> 
<polyline style="fill-rule:evenodd;"
points="81719,52475
81719,53068
82312,53068
82312,52475
81719,52475
" /> 
<polyline style="fill-rule:evenodd;"
points="77751,52475
77751,53068
78344,53068
78344,52475
77751,52475
" /> 
<circle cx="52782.4" cy="46208.7" r="315" /> 
</g>
<g style="fill:#000000; fill-opacity:1.0; 
stroke:#000000; stroke-width:39.3701; stroke-opacity:1; 
stroke-linecap:round; stroke-linejoin:round;">
</g>
<g style="fill:#000000; fill-opacity:1.0; 
stroke:#000000; stroke-width:0; stroke-opacity:1; 
stroke-linecap:round; stroke-linejoin:round;">
<circle cx="59532.4" cy="43708.7" r="315" /> 
</g>
<g style="fill:#000000; fill-opacity:1.0; 
stroke:#000000; stroke-width:39.3701; stroke-opacity:1; 
stroke-linecap:round; stroke-linejoin:round;">
</g>
<g style="fill:#000000; fill-opacity:1.0; 
stroke:#000000; stroke-width:0; stroke-opacity:1; 
stroke-linecap:round; stroke-linejoin:round;">
<circle cx="86032.4" cy="50708.7" r="315" /> 
</g>
<g style="fill:#000000; fill-opacity:1.0; 
stroke:#000000; stroke-width:39.3701; stroke-opacity:1; 
stroke-linecap:round; stroke-linejoin:round;">
</g>
<g style="fill:#000000; fill-opacity:1.0; 
stroke:#000000; stroke-width:0; stroke-opacity:1; 
stroke-linecap:round; stroke-linejoin:round;">
<circle cx="77032.4" cy="50708.7" r="315" /> 
</g>
<g style="fill:#000000; fill-opacity:1.0; 
stroke:#000000; stroke-width:39.3701; stroke-opacity:1; 
stroke-linecap:round; stroke-linejoin:round;">
</g>
<g style="fill:#000000; fill-opacity:1.0; 
stroke:#000000; stroke-width:0; stroke-opacity:1; 
stroke-linecap:round; stroke-linejoin:round;">
<circle cx="62032.4" cy="50708.7" r="315" /> 
</g>
<g style="fill:#000000; fill-opacity:1.0; 
stroke:#000000; stroke-width:39.3701; stroke-opacity:1; 
stroke-linecap:round; stroke-linejoin:round;">
</g>
<g style="fill:#000000; fill-opacity:1.0; 
stroke:#000000; stroke-width:0; stroke-opacity:1; 
stroke-linecap:round; stroke-linejoin:round;">
<circle cx="61532.4" cy="43708.7" r="315" /> 
</g>
<g style="fill:#000000; fill-opacity:1.0; 
stroke:#000000; stroke-width:39.3701; stroke-opacity:1; 
stroke-linecap:round; stroke-linejoin:round;">
</g>
<g style="fill:#000000; fill-opacity:1.0; 
stroke:#000000; stroke-width:0; stroke-opacity:1; 
stroke-linecap:round; stroke-linejoin:round;">
<circle cx="88032.4" cy="50708.7" r="315" /> 
</g>
<g style="fill:#000000; fill-opacity:1.0; 
stroke:#000000; stroke-width:39.3701; stroke-opacity:1; 
stroke-linecap:round; stroke-linejoin:round;">
</g>
<g style="fill:#000000; fill-opacity:1.0; 
stroke:#000000; stroke-width:0; stroke-opacity:1; 
stroke-linecap:round; stroke-linejoin:round;">
<circle cx="76032.4" cy="50708.7" r="315" /> 
</g>
<g style="fill:#000000; fill-opacity:1.0; 
stroke:#000000; stroke-width:39.3701; stroke-opacity:1; 
stroke-linecap:round; stroke-linejoin:round;">
</g>
<g style="fill:#000000; fill-opacity:1.0; 
stroke:#000000; stroke-width:0; stroke-opacity:1; 
stroke-linecap:round; stroke-linejoin:round;">
<circle cx="64032.4" cy="50708.7" r="315" /> 
</g>
<g style="fill:#000000; fill-opacity:1.0; 
stroke:#000000; stroke-width:39.3701; stroke-opacity:1; 
stroke-linecap:round; stroke-linejoin:round;">
</g>
<g style="fill:#000000; fill-opacity:1.0; 
stroke:#000000; stroke-width:0; stroke-opacity:1; 
stroke-linecap:round; stroke-linejoin:round;">
<circle cx="60532.4" cy="43708.7" r="315" /> 
</g>
<g style="fill:#000000; fill-opacity:1.0; 
stroke:#000000; stroke-width:39.3701; stroke-opacity:1; 
stroke-linecap:round; stroke-linejoin:round;">
</g>
<g style="fill:#000000; fill-opacity:1.0; 
stroke:#000000; stroke-width:0; stroke-opacity:1; 
stroke-linecap:round; stroke-linejoin:round;">
<circle cx="87032.4" cy="50708.7" r="315" /> 
</g>
<g style="fill:#000000; fill-opacity:1.0; 
stroke:#000000; stroke-width:39.3701; stroke-opacity:1; 
stroke-linecap:round; stroke-linejoin:round;">
</g>
<g style="fill:#000000; fill-opacity:1.0; 
stroke:#000000; stroke-width:0; stroke-opacity:1; 
stroke-linecap:round; stroke-linejoin:round;">
<circle cx="75032.4" cy="50708.7" r="315" /> 
</g>
<g style="fill:#000000; fill-opacity:1.0; 
stroke:#000000; stroke-width:39.3701; stroke-opacity:1; 
stroke-linecap:round; stroke-linejoin:round;">
</g>
<g style="fill:#000000; fill-opacity:1.0; 
stroke:#000000; stroke-width:0; stroke-opacity:1; 
stroke-linecap:round; stroke-linejoin:round;">
<circle cx="63032.4" cy="50708.7" r="315" /> 
</g>
<g style="fill:#000000; fill-opacity:1.0; 
stroke:#000000; stroke-width:39.3701; stroke-opacity:1; 
stroke-linecap:round; stroke-linejoin:round;">
</g>
<g style="fill:#000000; fill-opacity:1.0; 
stroke:#000000; stroke-width:0; stroke-opacity:1; 
stroke-linecap:round; stroke-linejoin:round;">
<polyline style="fill-rule:evenodd;"
points="72652,43663
72652,44253
73163,44253
73163,43663
72652,43663
" /> 
<polyline style="fill-rule:evenodd;"
points="73399,43663
73399,44253
73910,44253
73910,43663
73399,43663
" /> 
<polyline style="fill-rule:evenodd;"
points="58450,56075
58450,57341
59716,57341
59716,56075
58450,56075
" /> 
<polyline style="fill-rule:evenodd;"
points="52378,56075
52378,57341
53644,57341
53644,56075
52378,56075
" /> 
<polyline style="fill-rule:evenodd;"
points="56719,59167
56719,59760
57312,59760
57312,59167
56719,59167
" /> 
<polyline style="fill-rule:evenodd;"
points="54751,59167
54751,59760
55344,59760
55344,59167
54751,59167
" /> 
<polyline style="fill-rule:evenodd;"
points="55735,52475
55735,53068
56328,53068
56328,52475
55735,52475
" /> 
<polyline style="fill-rule:evenodd;"
points="57719,52475
57719,53068
58312,53068
58312,52475
57719,52475
" /> 
<polyline style="fill-rule:evenodd;"
points="53751,52475
53751,53068
54344,53068
54344,52475
53751,52475
" /> 
<polyline style="fill-rule:evenodd;"
points="65751,52475
65751,53068
66344,53068
66344,52475
65751,52475
" /> 
<polyline style="fill-rule:evenodd;"
points="69719,52475
69719,53068
70312,53068
70312,52475
69719,52475
" /> 
<polyline style="fill-rule:evenodd;"
points="67735,52475
67735,53068
68328,53068
68328,52475
67735,52475
" /> 
<polyline style="fill-rule:evenodd;"
points="66751,59167
66751,59760
67344,59760
67344,59167
66751,59167
" /> 
<polyline style="fill-rule:evenodd;"
points="68719,59167
68719,59760
69312,59760
69312,59167
68719,59167
" /> 
<polyline style="fill-rule:evenodd;"
points="64378,56075
64378,57341
65644,57341
65644,56075
64378,56075
" /> 
<polyline style="fill-rule:evenodd;"
points="70450,56075
70450,57341
71716,57341
71716,56075
70450,56075
" /> 
<polyline style="fill-rule:evenodd;"
points="89751,52475
89751,53068
90344,53068
90344,52475
89751,52475
" /> 
<polyline style="fill-rule:evenodd;"
points="93719,52475
93719,53068
94312,53068
94312,52475
93719,52475
" /> 
<polyline style="fill-rule:evenodd;"
points="91735,52475
91735,53068
92328,53068
92328,52475
91735,52475
" /> 
<polyline style="fill-rule:evenodd;"
points="90751,59167
90751,59760
91344,59760
91344,59167
90751,59167
" /> 
<polyline style="fill-rule:evenodd;"
points="92719,59167
92719,59760
93312,59760
93312,59167
92719,59167
" /> 
<polyline style="fill-rule:evenodd;"
points="88378,56075
88378,57341
89644,57341
89644,56075
88378,56075
" /> 
<polyline style="fill-rule:evenodd;"
points="94450,56075
94450,57341
95716,57341
95716,56075
94450,56075
" /> 
<polyline style="fill-rule:evenodd;"
points="70312,40942
70312,40349
69719,40349
69719,40942
70312,40942
" /> 
<polyline style="fill-rule:evenodd;"
points="66344,40942
66344,40349
65751,40349
65751,40942
66344,40942
" /> 
<polyline style="fill-rule:evenodd;"
points="68328,40942
68328,40349
67735,40349
67735,40942
68328,40942
" /> 
<polyline style="fill-rule:evenodd;"
points="69312,34250
69312,33657
68719,33657
68719,34250
69312,34250
" /> 
<polyline style="fill-rule:evenodd;"
points="67344,34250
67344,33657
66751,33657
66751,34250
67344,34250
" /> 
<polyline style="fill-rule:evenodd;"
points="71686,37341
71686,36075
70420,36075
70420,37341
71686,37341
" /> 
<polyline style="fill-rule:evenodd;"
points="65614,37341
65614,36075
64348,36075
64348,37341
65614,37341
" /> 
<polyline style="fill-rule:evenodd;"
points="94312,40942
94312,40349
93719,40349
93719,40942
94312,40942
" /> 
<polyline style="fill-rule:evenodd;"
points="90344,40942
90344,40349
89751,40349
89751,40942
90344,40942
" /> 
<polyline style="fill-rule:evenodd;"
points="92328,40942
92328,40349
91735,40349
91735,40942
92328,40942
" /> 
<polyline style="fill-rule:evenodd;"
points="93312,34250
93312,33657
92719,33657
92719,34250
93312,34250
" /> 
<polyline style="fill-rule:evenodd;"
points="91344,34250
91344,33657
90751,33657
90751,34250
91344,34250
" /> 
<polyline style="fill-rule:evenodd;"
points="95686,37341
95686,36075
94420,36075
94420,37341
95686,37341
" /> 
<polyline style="fill-rule:evenodd;"
points="89614,37341
89614,36075
88348,36075
88348,37341
89614,37341
" /> 
<polyline style="fill-rule:evenodd;"
points="75370,44840
74898,44840
74898,45076
75370,45076
75370,44840
" /> 
<polyline style="fill-rule:evenodd;"
points="75370,45340
74898,45340
74898,45576
75370,45576
75370,45340
" /> 
<polyline style="fill-rule:evenodd;"
points="75370,45840
74898,45840
74898,46076
75370,46076
75370,45840
" /> 
<polyline style="fill-rule:evenodd;"
points="75370,46340
74898,46340
74898,46576
75370,46576
75370,46340
" /> 
<polyline style="fill-rule:evenodd;"
points="75370,46839
74898,46839
74898,47075
75370,47075
75370,46839
" /> 
<polyline style="fill-rule:evenodd;"
points="75370,47339
74898,47339
74898,47575
75370,47575
75370,47339
" /> 
<polyline style="fill-rule:evenodd;"
points="75370,47839
74898,47839
74898,48075
75370,48075
75370,47839
" /> 
<polyline style="fill-rule:evenodd;"
points="75370,48339
74898,48339
74898,48575
75370,48575
75370,48339
" /> 
<polyline style="fill-rule:evenodd;"
points="73166,48339
72694,48339
72694,48575
73166,48575
73166,48339
" /> 
<polyline style="fill-rule:evenodd;"
points="73166,47839
72694,47839
72694,48075
73166,48075
73166,47839
" /> 
<polyline style="fill-rule:evenodd;"
points="73166,47339
72694,47339
72694,47575
73166,47575
73166,47339
" /> 
<polyline style="fill-rule:evenodd;"
points="73166,46839
72694,46839
72694,47075
73166,47075
73166,46839
" /> 
<polyline style="fill-rule:evenodd;"
points="73166,46340
72694,46340
72694,46576
73166,46576
73166,46340
" /> 
<polyline style="fill-rule:evenodd;"
points="73166,45840
72694,45840
72694,46076
73166,46076
73166,45840
" /> 
<polyline style="fill-rule:evenodd;"
points="73166,45340
72694,45340
72694,45576
73166,45576
73166,45340
" /> 
<polyline style="fill-rule:evenodd;"
points="73166,44840
72694,44840
72694,45076
73166,45076
73166,44840
" /> 
<circle cx="96282.4" cy="32458.7" r="492.126" /> 
</g>
<g style="fill:#000000; fill-opacity:1.0; 
stroke:#000000; stroke-width:39.3701; stroke-opacity:1; 
stroke-linecap:round; stroke-linejoin:round;">
</g>
<g style="fill:#000000; fill-opacity:1.0; 
stroke:#000000; stroke-width:0; stroke-opacity:1; 
stroke-linecap:round; stroke-linejoin:round;">
<circle cx="52782.4" cy="32458.7" r="492.126" /> 
</g>
<g style="fill:#000000; fill-opacity:1.0; 
stroke:#000000; stroke-width:39.3701; stroke-opacity:1; 
stroke-linecap:round; stroke-linejoin:round;">
</g>
<g style="fill:#000000; fill-opacity:1.0; 
stroke:#000000; stroke-width:0; stroke-opacity:1; 
stroke-linecap:round; stroke-linejoin:round;">
<circle cx="74032.4" cy="40708.7" r="492.126" /> 
</g>
<g style="fill:#000000; fill-opacity:1.0; 
stroke:#000000; stroke-width:39.3701; stroke-opacity:1; 
stroke-linecap:round; stroke-linejoin:round;">
</g>
<g style="fill:#000000; fill-opacity:1.0; 
stroke:#000000; stroke-width:0; stroke-opacity:1; 
stroke-linecap:round; stroke-linejoin:round;">
<circle cx="96282.4" cy="60458.7" r="492.126" /> 
</g>
<g style="fill:#000000; fill-opacity:1.0; 
stroke:#000000; stroke-width:39.3701; stroke-opacity:1; 
stroke-linecap:round; stroke-linejoin:round;">
</g>
<g style="fill:#000000; fill-opacity:1.0; 
stroke:#000000; stroke-width:0; stroke-opacity:1; 
stroke-linecap:round; stroke-linejoin:round;">
<circle cx="73282.4" cy="52208.7" r="492.126" /> 
</g>
<g style="fill:#000000; fill-opacity:1.0; 
stroke:#000000; stroke-width:39.3701; stroke-opacity:1; 
stroke-linecap:round; stroke-linejoin:round;">
</g>
<g style="fill:#000000; fill-opacity:1.0; 
stroke:#000000; stroke-width:0; stroke-opacity:1; 
stroke-linecap:round; stroke-linejoin:round;">
<circle cx="52282.4" cy="60708.7" r="492.126" /> 
</g>
<g style="fill:#000000; fill-opacity:1.0; 
stroke:#000000; stroke-width:39.3701; stroke-opacity:1; 
stroke-linecap:round; stroke-linejoin:round;">
</g> 
</svg>
