<?xml version="1.0" standalone="no"?>
 <!DOCTYPE svg PUBLIC "-//W3C//DTD SVG 1.1//EN" 
 "http://www.w3.org/Graphics/SVG/1.1/DTD/svg11.dtd"> 
<svg xmlns="http://www.w3.org/2000/svg" version="1.1" 
    width="29.7002cm" height="21.0007cm" viewBox="0 0 116930 82680 ">
<title>SVG Picture created as rotary-encoders-B.Mask.svg date 2017/04/01 17:57:06 </title>
  <desc>Picture generated by PCBNEW </desc>
<g style="fill:#000000; fill-opacity:1;stroke:#000000; stroke-opacity:1;
stroke-linecap:round; stroke-linejoin:round; "
 transform="translate(0 0) scale(1 1)">
</g>
<g style="fill:#000000; fill-opacity:0.0; 
stroke:#000000; stroke-width:-0.000393701; stroke-opacity:1; 
stroke-linecap:round; stroke-linejoin:round;">
</g>
<g style="fill:#000000; fill-opacity:0.0; 
stroke:#000000; stroke-width:39.3701; stroke-opacity:1; 
stroke-linecap:round; stroke-linejoin:round;">
<circle cx="16397.6" cy="50708.7" r="656.168" /> 
<path d="M15413 50708
L17381 50708
" />
<path d="M16397 49724
L16397 51692
" />
<path d="M66141 62204
L18897 62204
" />
<path d="M66141 30708
L66141 62204
" />
<path d="M18897 30708
L66141 30708
" />
<path d="M18897 62204
L18897 30708
" />
</g>
<g style="fill:#000000; fill-opacity:1.0; 
stroke:#000000; stroke-width:0; stroke-opacity:1; 
stroke-linecap:round; stroke-linejoin:round;">
<circle cx="20897.6" cy="46208.7" r="315" /> 
</g>
<g style="fill:#000000; fill-opacity:1.0; 
stroke:#000000; stroke-width:39.3701; stroke-opacity:1; 
stroke-linecap:round; stroke-linejoin:round;">
</g>
<g style="fill:#000000; fill-opacity:1.0; 
stroke:#000000; stroke-width:0; stroke-opacity:1; 
stroke-linecap:round; stroke-linejoin:round;">
<circle cx="20897.6" cy="45208.7" r="315" /> 
</g>
<g style="fill:#000000; fill-opacity:1.0; 
stroke:#000000; stroke-width:39.3701; stroke-opacity:1; 
stroke-linecap:round; stroke-linejoin:round;">
</g>
<g style="fill:#000000; fill-opacity:1.0; 
stroke:#000000; stroke-width:0; stroke-opacity:1; 
stroke-linecap:round; stroke-linejoin:round;">
<circle cx="64147.6" cy="45208.7" r="315" /> 
</g>
<g style="fill:#000000; fill-opacity:1.0; 
stroke:#000000; stroke-width:39.3701; stroke-opacity:1; 
stroke-linecap:round; stroke-linejoin:round;">
</g>
<g style="fill:#000000; fill-opacity:1.0; 
stroke:#000000; stroke-width:0; stroke-opacity:1; 
stroke-linecap:round; stroke-linejoin:round;">
<polyline style="fill-rule:evenodd;"
points="63315,37341
63315,36075
64581,36075
64581,37341
63315,37341
" /> 
<polyline style="fill-rule:evenodd;"
points="57243,37341
57243,36075
58509,36075
58509,37341
57243,37341
" /> 
<polyline style="fill-rule:evenodd;"
points="61585,34250
61585,33657
62178,33657
62178,34250
61585,34250
" /> 
<polyline style="fill-rule:evenodd;"
points="59617,34250
59617,33657
60210,33657
60210,34250
59617,34250
" /> 
<polyline style="fill-rule:evenodd;"
points="60601,40942
60601,40349
61194,40349
61194,40942
60601,40942
" /> 
<polyline style="fill-rule:evenodd;"
points="62585,40942
62585,40349
63178,40349
63178,40942
62585,40942
" /> 
<polyline style="fill-rule:evenodd;"
points="58617,40942
58617,40349
59210,40349
59210,40942
58617,40942
" /> 
<polyline style="fill-rule:evenodd;"
points="36192,55091
35602,55091
35602,54580
36192,54580
36192,55091
" /> 
<polyline style="fill-rule:evenodd;"
points="36192,55838
35602,55838
35602,55327
36192,55327
36192,55838
" /> 
<polyline style="fill-rule:evenodd;"
points="39315,37341
39315,36075
40581,36075
40581,37341
39315,37341
" /> 
<polyline style="fill-rule:evenodd;"
points="33243,37341
33243,36075
34509,36075
34509,37341
33243,37341
" /> 
<polyline style="fill-rule:evenodd;"
points="37585,34250
37585,33657
38178,33657
38178,34250
37585,34250
" /> 
<polyline style="fill-rule:evenodd;"
points="35617,34250
35617,33657
36210,33657
36210,34250
35617,34250
" /> 
<polyline style="fill-rule:evenodd;"
points="36601,40942
36601,40349
37194,40349
37194,40942
36601,40942
" /> 
<polyline style="fill-rule:evenodd;"
points="38585,40942
38585,40349
39178,40349
39178,40942
38585,40942
" /> 
<polyline style="fill-rule:evenodd;"
points="34617,40942
34617,40349
35210,40349
35210,40942
34617,40942
" /> 
<polyline style="fill-rule:evenodd;"
points="34479,56075
34479,57341
33213,57341
33213,56075
34479,56075
" /> 
<polyline style="fill-rule:evenodd;"
points="40551,56075
40551,57341
39285,57341
39285,56075
40551,56075
" /> 
<polyline style="fill-rule:evenodd;"
points="36210,59167
36210,59760
35617,59760
35617,59167
36210,59167
" /> 
<polyline style="fill-rule:evenodd;"
points="38178,59167
38178,59760
37585,59760
37585,59167
38178,59167
" /> 
<polyline style="fill-rule:evenodd;"
points="37194,52475
37194,53068
36601,53068
36601,52475
37194,52475
" /> 
<polyline style="fill-rule:evenodd;"
points="35210,52475
35210,53068
34617,53068
34617,52475
35210,52475
" /> 
<polyline style="fill-rule:evenodd;"
points="39178,52475
39178,53068
38585,53068
38585,52475
39178,52475
" /> 
<polyline style="fill-rule:evenodd;"
points="53559,44840
54031,44840
54031,45076
53559,45076
53559,44840
" /> 
<polyline style="fill-rule:evenodd;"
points="53559,45340
54031,45340
54031,45576
53559,45576
53559,45340
" /> 
<polyline style="fill-rule:evenodd;"
points="53559,45840
54031,45840
54031,46076
53559,46076
53559,45840
" /> 
<polyline style="fill-rule:evenodd;"
points="53559,46340
54031,46340
54031,46576
53559,46576
53559,46340
" /> 
<polyline style="fill-rule:evenodd;"
points="53559,46839
54031,46839
54031,47075
53559,47075
53559,46839
" /> 
<polyline style="fill-rule:evenodd;"
points="53559,47339
54031,47339
54031,47575
53559,47575
53559,47339
" /> 
<polyline style="fill-rule:evenodd;"
points="53559,47839
54031,47839
54031,48075
53559,48075
53559,47839
" /> 
<polyline style="fill-rule:evenodd;"
points="53559,48339
54031,48339
54031,48575
53559,48575
53559,48339
" /> 
<polyline style="fill-rule:evenodd;"
points="55763,48339
56235,48339
56235,48575
55763,48575
55763,48339
" /> 
<polyline style="fill-rule:evenodd;"
points="55763,47839
56235,47839
56235,48075
55763,48075
55763,47839
" /> 
<polyline style="fill-rule:evenodd;"
points="55763,47339
56235,47339
56235,47575
55763,47575
55763,47339
" /> 
<polyline style="fill-rule:evenodd;"
points="55763,46839
56235,46839
56235,47075
55763,47075
55763,46839
" /> 
<polyline style="fill-rule:evenodd;"
points="55763,46340
56235,46340
56235,46576
55763,46576
55763,46340
" /> 
<polyline style="fill-rule:evenodd;"
points="55763,45840
56235,45840
56235,46076
55763,46076
55763,45840
" /> 
<polyline style="fill-rule:evenodd;"
points="55763,45340
56235,45340
56235,45576
55763,45576
55763,45340
" /> 
<polyline style="fill-rule:evenodd;"
points="55763,44840
56235,44840
56235,45076
55763,45076
55763,44840
" /> 
<circle cx="64147.6" cy="46208.7" r="315" /> 
</g>
<g style="fill:#000000; fill-opacity:1.0; 
stroke:#000000; stroke-width:39.3701; stroke-opacity:1; 
stroke-linecap:round; stroke-linejoin:round;">
</g>
<g style="fill:#000000; fill-opacity:1.0; 
stroke:#000000; stroke-width:0; stroke-opacity:1; 
stroke-linecap:round; stroke-linejoin:round;">
<circle cx="57397.6" cy="43708.7" r="315" /> 
</g>
<g style="fill:#000000; fill-opacity:1.0; 
stroke:#000000; stroke-width:39.3701; stroke-opacity:1; 
stroke-linecap:round; stroke-linejoin:round;">
</g>
<g style="fill:#000000; fill-opacity:1.0; 
stroke:#000000; stroke-width:0; stroke-opacity:1; 
stroke-linecap:round; stroke-linejoin:round;">
<circle cx="30897.6" cy="50708.7" r="315" /> 
</g>
<g style="fill:#000000; fill-opacity:1.0; 
stroke:#000000; stroke-width:39.3701; stroke-opacity:1; 
stroke-linecap:round; stroke-linejoin:round;">
</g>
<g style="fill:#000000; fill-opacity:1.0; 
stroke:#000000; stroke-width:0; stroke-opacity:1; 
stroke-linecap:round; stroke-linejoin:round;">
<circle cx="39897.6" cy="50708.7" r="315" /> 
</g>
<g style="fill:#000000; fill-opacity:1.0; 
stroke:#000000; stroke-width:39.3701; stroke-opacity:1; 
stroke-linecap:round; stroke-linejoin:round;">
</g>
<g style="fill:#000000; fill-opacity:1.0; 
stroke:#000000; stroke-width:0; stroke-opacity:1; 
stroke-linecap:round; stroke-linejoin:round;">
<circle cx="54897.6" cy="50708.7" r="315" /> 
</g>
<g style="fill:#000000; fill-opacity:1.0; 
stroke:#000000; stroke-width:39.3701; stroke-opacity:1; 
stroke-linecap:round; stroke-linejoin:round;">
</g>
<g style="fill:#000000; fill-opacity:1.0; 
stroke:#000000; stroke-width:0; stroke-opacity:1; 
stroke-linecap:round; stroke-linejoin:round;">
<circle cx="55397.6" cy="43708.7" r="315" /> 
</g>
<g style="fill:#000000; fill-opacity:1.0; 
stroke:#000000; stroke-width:39.3701; stroke-opacity:1; 
stroke-linecap:round; stroke-linejoin:round;">
</g>
<g style="fill:#000000; fill-opacity:1.0; 
stroke:#000000; stroke-width:0; stroke-opacity:1; 
stroke-linecap:round; stroke-linejoin:round;">
<circle cx="28897.6" cy="50708.7" r="315" /> 
</g>
<g style="fill:#000000; fill-opacity:1.0; 
stroke:#000000; stroke-width:39.3701; stroke-opacity:1; 
stroke-linecap:round; stroke-linejoin:round;">
</g>
<g style="fill:#000000; fill-opacity:1.0; 
stroke:#000000; stroke-width:0; stroke-opacity:1; 
stroke-linecap:round; stroke-linejoin:round;">
<circle cx="40897.6" cy="50708.7" r="315" /> 
</g>
<g style="fill:#000000; fill-opacity:1.0; 
stroke:#000000; stroke-width:39.3701; stroke-opacity:1; 
stroke-linecap:round; stroke-linejoin:round;">
</g>
<g style="fill:#000000; fill-opacity:1.0; 
stroke:#000000; stroke-width:0; stroke-opacity:1; 
stroke-linecap:round; stroke-linejoin:round;">
<circle cx="52897.6" cy="50708.7" r="315" /> 
</g>
<g style="fill:#000000; fill-opacity:1.0; 
stroke:#000000; stroke-width:39.3701; stroke-opacity:1; 
stroke-linecap:round; stroke-linejoin:round;">
</g>
<g style="fill:#000000; fill-opacity:1.0; 
stroke:#000000; stroke-width:0; stroke-opacity:1; 
stroke-linecap:round; stroke-linejoin:round;">
<circle cx="56397.6" cy="43708.7" r="315" /> 
</g>
<g style="fill:#000000; fill-opacity:1.0; 
stroke:#000000; stroke-width:39.3701; stroke-opacity:1; 
stroke-linecap:round; stroke-linejoin:round;">
</g>
<g style="fill:#000000; fill-opacity:1.0; 
stroke:#000000; stroke-width:0; stroke-opacity:1; 
stroke-linecap:round; stroke-linejoin:round;">
<circle cx="29897.6" cy="50708.7" r="315" /> 
</g>
<g style="fill:#000000; fill-opacity:1.0; 
stroke:#000000; stroke-width:39.3701; stroke-opacity:1; 
stroke-linecap:round; stroke-linejoin:round;">
</g>
<g style="fill:#000000; fill-opacity:1.0; 
stroke:#000000; stroke-width:0; stroke-opacity:1; 
stroke-linecap:round; stroke-linejoin:round;">
<circle cx="41897.6" cy="50708.7" r="315" /> 
</g>
<g style="fill:#000000; fill-opacity:1.0; 
stroke:#000000; stroke-width:39.3701; stroke-opacity:1; 
stroke-linecap:round; stroke-linejoin:round;">
</g>
<g style="fill:#000000; fill-opacity:1.0; 
stroke:#000000; stroke-width:0; stroke-opacity:1; 
stroke-linecap:round; stroke-linejoin:round;">
<circle cx="53897.6" cy="50708.7" r="315" /> 
</g>
<g style="fill:#000000; fill-opacity:1.0; 
stroke:#000000; stroke-width:39.3701; stroke-opacity:1; 
stroke-linecap:round; stroke-linejoin:round;">
</g>
<g style="fill:#000000; fill-opacity:1.0; 
stroke:#000000; stroke-width:0; stroke-opacity:1; 
stroke-linecap:round; stroke-linejoin:round;">
<polyline style="fill-rule:evenodd;"
points="54265,44253
54265,43663
54776,43663
54776,44253
54265,44253
" /> 
<polyline style="fill-rule:evenodd;"
points="53518,44253
53518,43663
54029,43663
54029,44253
53518,44253
" /> 
<polyline style="fill-rule:evenodd;"
points="29518,44253
29518,43663
30029,43663
30029,44253
29518,44253
" /> 
<polyline style="fill-rule:evenodd;"
points="30265,44253
30265,43663
30776,43663
30776,44253
30265,44253
" /> 
<polyline style="fill-rule:evenodd;"
points="58479,56075
58479,57341
57213,57341
57213,56075
58479,56075
" /> 
<polyline style="fill-rule:evenodd;"
points="64551,56075
64551,57341
63285,57341
63285,56075
64551,56075
" /> 
<polyline style="fill-rule:evenodd;"
points="60210,59167
60210,59760
59617,59760
59617,59167
60210,59167
" /> 
<polyline style="fill-rule:evenodd;"
points="62178,59167
62178,59760
61585,59760
61585,59167
62178,59167
" /> 
<polyline style="fill-rule:evenodd;"
points="61194,52475
61194,53068
60601,53068
60601,52475
61194,52475
" /> 
<polyline style="fill-rule:evenodd;"
points="59210,52475
59210,53068
58617,53068
58617,52475
59210,52475
" /> 
<polyline style="fill-rule:evenodd;"
points="63178,52475
63178,53068
62585,53068
62585,52475
63178,52475
" /> 
<polyline style="fill-rule:evenodd;"
points="51178,52475
51178,53068
50585,53068
50585,52475
51178,52475
" /> 
<polyline style="fill-rule:evenodd;"
points="47210,52475
47210,53068
46617,53068
46617,52475
47210,52475
" /> 
<polyline style="fill-rule:evenodd;"
points="49194,52475
49194,53068
48601,53068
48601,52475
49194,52475
" /> 
<polyline style="fill-rule:evenodd;"
points="50178,59167
50178,59760
49585,59760
49585,59167
50178,59167
" /> 
<polyline style="fill-rule:evenodd;"
points="48210,59167
48210,59760
47617,59760
47617,59167
48210,59167
" /> 
<polyline style="fill-rule:evenodd;"
points="52551,56075
52551,57341
51285,57341
51285,56075
52551,56075
" /> 
<polyline style="fill-rule:evenodd;"
points="46479,56075
46479,57341
45213,57341
45213,56075
46479,56075
" /> 
<polyline style="fill-rule:evenodd;"
points="27178,52475
27178,53068
26585,53068
26585,52475
27178,52475
" /> 
<polyline style="fill-rule:evenodd;"
points="23210,52475
23210,53068
22617,53068
22617,52475
23210,52475
" /> 
<polyline style="fill-rule:evenodd;"
points="25194,52475
25194,53068
24601,53068
24601,52475
25194,52475
" /> 
<polyline style="fill-rule:evenodd;"
points="26178,59167
26178,59760
25585,59760
25585,59167
26178,59167
" /> 
<polyline style="fill-rule:evenodd;"
points="24210,59167
24210,59760
23617,59760
23617,59167
24210,59167
" /> 
<polyline style="fill-rule:evenodd;"
points="28551,56075
28551,57341
27285,57341
27285,56075
28551,56075
" /> 
<polyline style="fill-rule:evenodd;"
points="22479,56075
22479,57341
21213,57341
21213,56075
22479,56075
" /> 
<polyline style="fill-rule:evenodd;"
points="46617,40942
46617,40349
47210,40349
47210,40942
46617,40942
" /> 
<polyline style="fill-rule:evenodd;"
points="50585,40942
50585,40349
51178,40349
51178,40942
50585,40942
" /> 
<polyline style="fill-rule:evenodd;"
points="48601,40942
48601,40349
49194,40349
49194,40942
48601,40942
" /> 
<polyline style="fill-rule:evenodd;"
points="47617,34250
47617,33657
48210,33657
48210,34250
47617,34250
" /> 
<polyline style="fill-rule:evenodd;"
points="49585,34250
49585,33657
50178,33657
50178,34250
49585,34250
" /> 
<polyline style="fill-rule:evenodd;"
points="45243,37341
45243,36075
46509,36075
46509,37341
45243,37341
" /> 
<polyline style="fill-rule:evenodd;"
points="51315,37341
51315,36075
52581,36075
52581,37341
51315,37341
" /> 
<polyline style="fill-rule:evenodd;"
points="22617,40942
22617,40349
23210,40349
23210,40942
22617,40942
" /> 
<polyline style="fill-rule:evenodd;"
points="26585,40942
26585,40349
27178,40349
27178,40942
26585,40942
" /> 
<polyline style="fill-rule:evenodd;"
points="24601,40942
24601,40349
25194,40349
25194,40942
24601,40942
" /> 
<polyline style="fill-rule:evenodd;"
points="23617,34250
23617,33657
24210,33657
24210,34250
23617,34250
" /> 
<polyline style="fill-rule:evenodd;"
points="25585,34250
25585,33657
26178,33657
26178,34250
25585,34250
" /> 
<polyline style="fill-rule:evenodd;"
points="21243,37341
21243,36075
22509,36075
22509,37341
21243,37341
" /> 
<polyline style="fill-rule:evenodd;"
points="27315,37341
27315,36075
28581,36075
28581,37341
27315,37341
" /> 
<polyline style="fill-rule:evenodd;"
points="25602,37579
26192,37579
26192,38090
25602,38090
25602,37579
" /> 
<polyline style="fill-rule:evenodd;"
points="25602,38326
26192,38326
26192,38837
25602,38837
25602,38326
" /> 
<polyline style="fill-rule:evenodd;"
points="35602,38326
36192,38326
36192,38837
35602,38837
35602,38326
" /> 
<polyline style="fill-rule:evenodd;"
points="35602,37579
36192,37579
36192,38090
35602,38090
35602,37579
" /> 
<polyline style="fill-rule:evenodd;"
points="62602,53829
63192,53829
63192,54340
62602,54340
62602,53829
" /> 
<polyline style="fill-rule:evenodd;"
points="62602,54576
63192,54576
63192,55087
62602,55087
62602,54576
" /> 
<polyline style="fill-rule:evenodd;"
points="59602,38326
60192,38326
60192,38837
59602,38837
59602,38326
" /> 
<polyline style="fill-rule:evenodd;"
points="59602,37579
60192,37579
60192,38090
59602,38090
59602,37579
" /> 
<polyline style="fill-rule:evenodd;"
points="60192,55838
59602,55838
59602,55327
60192,55327
60192,55838
" /> 
<polyline style="fill-rule:evenodd;"
points="60192,55091
59602,55091
59602,54580
60192,54580
60192,55091
" /> 
<polyline style="fill-rule:evenodd;"
points="50192,55091
49602,55091
49602,54580
50192,54580
50192,55091
" /> 
<polyline style="fill-rule:evenodd;"
points="50192,55838
49602,55838
49602,55327
50192,55327
50192,55838
" /> 
<polyline style="fill-rule:evenodd;"
points="34602,53829
35192,53829
35192,54340
34602,54340
34602,53829
" /> 
<polyline style="fill-rule:evenodd;"
points="34602,54576
35192,54576
35192,55087
34602,55087
34602,54576
" /> 
<polyline style="fill-rule:evenodd;"
points="38602,54576
39192,54576
39192,55087
38602,55087
38602,54576
" /> 
<polyline style="fill-rule:evenodd;"
points="38602,53829
39192,53829
39192,54340
38602,54340
38602,53829
" /> 
<polyline style="fill-rule:evenodd;"
points="63192,39588
62602,39588
62602,39077
63192,39077
63192,39588
" /> 
<polyline style="fill-rule:evenodd;"
points="63192,38841
62602,38841
62602,38330
63192,38330
63192,38841
" /> 
<polyline style="fill-rule:evenodd;"
points="35192,38841
34602,38841
34602,38330
35192,38330
35192,38841
" /> 
<polyline style="fill-rule:evenodd;"
points="35192,39588
34602,39588
34602,39077
35192,39077
35192,39588
" /> 
<polyline style="fill-rule:evenodd;"
points="27192,39588
26602,39588
26602,39077
27192,39077
27192,39588
" /> 
<polyline style="fill-rule:evenodd;"
points="27192,38841
26602,38841
26602,38330
27192,38330
27192,38841
" /> 
<polyline style="fill-rule:evenodd;"
points="23192,38841
22602,38841
22602,38330
23192,38330
23192,38841
" /> 
<polyline style="fill-rule:evenodd;"
points="23192,39588
22602,39588
22602,39077
23192,39077
23192,39588
" /> 
<polyline style="fill-rule:evenodd;"
points="22602,53829
23192,53829
23192,54340
22602,54340
22602,53829
" /> 
<polyline style="fill-rule:evenodd;"
points="22602,54576
23192,54576
23192,55087
22602,55087
22602,54576
" /> 
<polyline style="fill-rule:evenodd;"
points="26602,54576
27192,54576
27192,55087
26602,55087
26602,54576
" /> 
<polyline style="fill-rule:evenodd;"
points="26602,53829
27192,53829
27192,54340
26602,54340
26602,53829
" /> 
<polyline style="fill-rule:evenodd;"
points="58602,53829
59192,53829
59192,54340
58602,54340
58602,53829
" /> 
<polyline style="fill-rule:evenodd;"
points="58602,54576
59192,54576
59192,55087
58602,55087
58602,54576
" /> 
<polyline style="fill-rule:evenodd;"
points="29192,54341
28602,54341
28602,53830
29192,53830
29192,54341
" /> 
<polyline style="fill-rule:evenodd;"
points="29192,55088
28602,55088
28602,54577
29192,54577
29192,55088
" /> 
<polyline style="fill-rule:evenodd;"
points="41192,55088
40602,55088
40602,54577
41192,54577
41192,55088
" /> 
<polyline style="fill-rule:evenodd;"
points="41192,54341
40602,54341
40602,53830
41192,53830
41192,54341
" /> 
<polyline style="fill-rule:evenodd;"
points="53192,54341
52602,54341
52602,53830
53192,53830
53192,54341
" /> 
<polyline style="fill-rule:evenodd;"
points="53192,55088
52602,55088
52602,54577
53192,54577
53192,55088
" /> 
<polyline style="fill-rule:evenodd;"
points="26192,55838
25602,55838
25602,55327
26192,55327
26192,55838
" /> 
<polyline style="fill-rule:evenodd;"
points="26192,55091
25602,55091
25602,54580
26192,54580
26192,55091
" /> 
<polyline style="fill-rule:evenodd;"
points="50602,53829
51192,53829
51192,54340
50602,54340
50602,53829
" /> 
<polyline style="fill-rule:evenodd;"
points="50602,54576
51192,54576
51192,55087
50602,55087
50602,54576
" /> 
<polyline style="fill-rule:evenodd;"
points="46602,54576
47192,54576
47192,55087
46602,55087
46602,54576
" /> 
<polyline style="fill-rule:evenodd;"
points="46602,53829
47192,53829
47192,54340
46602,54340
46602,53829
" /> 
<polyline style="fill-rule:evenodd;"
points="47192,39588
46602,39588
46602,39077
47192,39077
47192,39588
" /> 
<polyline style="fill-rule:evenodd;"
points="47192,38841
46602,38841
46602,38330
47192,38330
47192,38841
" /> 
<polyline style="fill-rule:evenodd;"
points="51192,38841
50602,38841
50602,38330
51192,38330
51192,38841
" /> 
<polyline style="fill-rule:evenodd;"
points="51192,39588
50602,39588
50602,39077
51192,39077
51192,39588
" /> 
<polyline style="fill-rule:evenodd;"
points="59192,39588
58602,39588
58602,39077
59192,39077
59192,39588
" /> 
<polyline style="fill-rule:evenodd;"
points="59192,38841
58602,38841
58602,38330
59192,38330
59192,38841
" /> 
<polyline style="fill-rule:evenodd;"
points="39192,38841
38602,38841
38602,38330
39192,38330
39192,38841
" /> 
<polyline style="fill-rule:evenodd;"
points="39192,39588
38602,39588
38602,39077
39192,39077
39192,39588
" /> 
<polyline style="fill-rule:evenodd;"
points="49602,37579
50192,37579
50192,38090
49602,38090
49602,37579
" /> 
<polyline style="fill-rule:evenodd;"
points="49602,38326
50192,38326
50192,38837
49602,38837
49602,38326
" /> 
<polyline style="fill-rule:evenodd;"
points="31763,44840
32235,44840
32235,45076
31763,45076
31763,44840
" /> 
<polyline style="fill-rule:evenodd;"
points="31763,45340
32235,45340
32235,45576
31763,45576
31763,45340
" /> 
<polyline style="fill-rule:evenodd;"
points="31763,45840
32235,45840
32235,46076
31763,46076
31763,45840
" /> 
<polyline style="fill-rule:evenodd;"
points="31763,46340
32235,46340
32235,46576
31763,46576
31763,46340
" /> 
<polyline style="fill-rule:evenodd;"
points="31763,46839
32235,46839
32235,47075
31763,47075
31763,46839
" /> 
<polyline style="fill-rule:evenodd;"
points="31763,47339
32235,47339
32235,47575
31763,47575
31763,47339
" /> 
<polyline style="fill-rule:evenodd;"
points="31763,47839
32235,47839
32235,48075
31763,48075
31763,47839
" /> 
<polyline style="fill-rule:evenodd;"
points="31763,48339
32235,48339
32235,48575
31763,48575
31763,48339
" /> 
<polyline style="fill-rule:evenodd;"
points="29559,48339
30031,48339
30031,48575
29559,48575
29559,48339
" /> 
<polyline style="fill-rule:evenodd;"
points="29559,47839
30031,47839
30031,48075
29559,48075
29559,47839
" /> 
<polyline style="fill-rule:evenodd;"
points="29559,47339
30031,47339
30031,47575
29559,47575
29559,47339
" /> 
<polyline style="fill-rule:evenodd;"
points="29559,46839
30031,46839
30031,47075
29559,47075
29559,46839
" /> 
<polyline style="fill-rule:evenodd;"
points="29559,46340
30031,46340
30031,46576
29559,46576
29559,46340
" /> 
<polyline style="fill-rule:evenodd;"
points="29559,45840
30031,45840
30031,46076
29559,46076
29559,45840
" /> 
<polyline style="fill-rule:evenodd;"
points="29559,45340
30031,45340
30031,45576
29559,45576
29559,45340
" /> 
<polyline style="fill-rule:evenodd;"
points="29559,44840
30031,44840
30031,45076
29559,45076
29559,44840
" /> 
<circle cx="20647.6" cy="32458.7" r="492.126" /> 
</g>
<g style="fill:#000000; fill-opacity:1.0; 
stroke:#000000; stroke-width:39.3701; stroke-opacity:1; 
stroke-linecap:round; stroke-linejoin:round;">
</g>
<g style="fill:#000000; fill-opacity:1.0; 
stroke:#000000; stroke-width:0; stroke-opacity:1; 
stroke-linecap:round; stroke-linejoin:round;">
<circle cx="64147.6" cy="32458.7" r="492.126" /> 
</g>
<g style="fill:#000000; fill-opacity:1.0; 
stroke:#000000; stroke-width:39.3701; stroke-opacity:1; 
stroke-linecap:round; stroke-linejoin:round;">
</g>
<g style="fill:#000000; fill-opacity:1.0; 
stroke:#000000; stroke-width:0; stroke-opacity:1; 
stroke-linecap:round; stroke-linejoin:round;">
<circle cx="42897.6" cy="40708.7" r="492.126" /> 
</g>
<g style="fill:#000000; fill-opacity:1.0; 
stroke:#000000; stroke-width:39.3701; stroke-opacity:1; 
stroke-linecap:round; stroke-linejoin:round;">
</g>
<g style="fill:#000000; fill-opacity:1.0; 
stroke:#000000; stroke-width:0; stroke-opacity:1; 
stroke-linecap:round; stroke-linejoin:round;">
<circle cx="20647.6" cy="60458.7" r="492.126" /> 
</g>
<g style="fill:#000000; fill-opacity:1.0; 
stroke:#000000; stroke-width:39.3701; stroke-opacity:1; 
stroke-linecap:round; stroke-linejoin:round;">
</g>
<g style="fill:#000000; fill-opacity:1.0; 
stroke:#000000; stroke-width:0; stroke-opacity:1; 
stroke-linecap:round; stroke-linejoin:round;">
<circle cx="43647.6" cy="52208.7" r="492.126" /> 
</g>
<g style="fill:#000000; fill-opacity:1.0; 
stroke:#000000; stroke-width:39.3701; stroke-opacity:1; 
stroke-linecap:round; stroke-linejoin:round;">
</g>
<g style="fill:#000000; fill-opacity:1.0; 
stroke:#000000; stroke-width:0; stroke-opacity:1; 
stroke-linecap:round; stroke-linejoin:round;">
<circle cx="64647.6" cy="60708.7" r="492.126" /> 
</g>
<g style="fill:#000000; fill-opacity:1.0; 
stroke:#000000; stroke-width:39.3701; stroke-opacity:1; 
stroke-linecap:round; stroke-linejoin:round;">
</g> 
</svg>
